<svg width="42" height="47" viewBox="0 0 42 47" fill="none" xmlns="http://www.w3.org/2000/svg">
<path fill-rule="evenodd" clip-rule="evenodd" d="M22.3041 0.00482771C29.9489 -0.223803 34.8335 7.71316 38.7613 14.2428C41.9404 19.5277 42.7475 25.6261 41.3215 31.6197C39.9124 37.5427 36.8094 43.2434 31.255 45.794C25.7909 48.3031 19.6934 46.4862 14.1817 44.0825C8.32148 41.5269 1.83278 38.4789 0.305135 32.2968C-1.24094 26.0401 3.40915 20.5247 7.04248 15.1914C11.2896 8.95704 14.7379 0.231109 22.3041 0.00482771Z" fill="#EFF0F2"/>
<path d="M14.7991 23.083C14.6641 24.0028 14.6641 25.2078 14.6641 26.8333C14.6641 29.9759 14.6641 31.5473 15.6404 32.5236C16.6167 33.4999 18.188 33.4999 21.3307 33.4999H24.6641C27.8067 33.4999 29.3781 33.4999 30.3544 32.5236C31.3307 31.5473 31.3307 29.9759 31.3307 26.8333C31.3307 25.208 31.3307 24.003 31.1956 23.0832C29.2985 24.3164 28.0825 25.1028 26.9558 25.5872V26C26.9558 26.3452 26.676 26.625 26.3308 26.625C25.9902 26.625 25.7132 26.3525 25.706 26.0137C23.9307 26.4817 22.0642 26.4817 20.289 26.0137C20.2817 26.3525 20.0048 26.625 19.6641 26.625C19.319 26.625 19.0391 26.3452 19.0391 26V25.5871C17.9124 25.1028 16.6964 24.3162 14.7991 23.083Z" fill="#08121D"/>
<path fill-rule="evenodd" clip-rule="evenodd" d="M21.8161 17.875H21.7991C21.7044 17.875 21.6309 17.875 21.5612 17.8792C20.6775 17.9327 19.9037 18.4905 19.5734 19.3119C19.5473 19.377 19.5042 19.5063 19.4735 19.5985L19.4702 19.6082C19.3843 19.8415 19.2292 20.0435 19.0496 20.1878C18.86 20.1939 18.679 20.2018 18.5059 20.212C17.1359 20.2929 16.2665 20.5177 15.6412 21.143C15.4374 21.3469 15.2761 21.5767 15.1484 21.8414C15.1964 21.8578 15.2432 21.8803 15.2876 21.9092C17.0379 23.0468 18.1375 23.7584 19.0512 24.2149C19.1066 23.9264 19.3604 23.7084 19.665 23.7084C20.0102 23.7084 20.29 23.9882 20.29 24.3334V24.715C22.0562 25.248 23.9404 25.248 25.7067 24.715V24.3334C25.7067 23.9882 25.9865 23.7084 26.3317 23.7084C26.6364 23.7084 26.8901 23.9264 26.9454 24.215C27.8592 23.7585 28.9589 23.0469 30.7092 21.9092C30.7536 21.8803 30.8003 21.8578 30.8482 21.8415C30.7205 21.5768 30.5592 21.3469 30.3553 21.143C29.73 20.5177 28.8606 20.2929 27.4907 20.212C27.3264 20.2024 27.1549 20.1947 26.9758 20.1887C26.9644 20.1795 26.9531 20.1701 26.9418 20.1603C26.7412 19.987 26.5844 19.7584 26.5053 19.5441L26.5027 19.5362C26.4728 19.4465 26.4495 19.3766 26.4234 19.3119C26.0933 18.4905 25.3194 17.9327 24.4358 17.8792C24.3661 17.875 24.2924 17.875 24.1979 17.875H21.8161ZM25.3463 20.0131L25.3425 20.0041L25.3384 19.9941L25.3347 19.9841L25.3316 19.9758L25.3301 19.9716L25.3266 19.9614L25.3234 19.952L25.3217 19.9468L25.3194 19.9399L25.3175 19.934L25.316 19.9293C25.2833 19.8309 25.2732 19.8017 25.2637 19.7781C25.1136 19.4048 24.7619 19.1512 24.3602 19.1269C24.3333 19.1253 24.3004 19.125 24.1809 19.125H21.8161C21.6966 19.125 21.6636 19.1253 21.6368 19.1269C21.2351 19.1512 20.8834 19.4047 20.7333 19.778L20.7311 19.7838L20.7245 19.802C20.7189 19.8175 20.7122 19.8369 20.7044 19.8596C20.6907 19.9 20.6752 19.9462 20.6595 19.9932L20.658 19.9981L20.6561 20.004L20.6539 20.011L20.6521 20.0162L20.6489 20.0256L20.6454 20.0358L20.6439 20.04L20.6409 20.0483L20.6371 20.0582L20.633 20.0683L20.6295 20.0766L20.629 20.0778C20.6174 20.1077 20.6051 20.1375 20.5921 20.1672C20.8285 20.1667 21.0748 20.1667 21.3316 20.1667H24.6649C24.9245 20.1667 25.1734 20.1667 25.412 20.1672C25.3883 20.1163 25.3664 20.0649 25.3463 20.0131Z" fill="#08121D"/>
</svg>
