<svg width="47" height="43" viewBox="0 0 47 43" fill="none" xmlns="http://www.w3.org/2000/svg">
<path fill-rule="evenodd" clip-rule="evenodd" d="M20.173 0.00333395C26.7415 0.168666 30.0634 7.31879 34.4532 12.259C39.4525 17.8851 48.6897 22.594 46.7318 29.8919C44.7769 37.1784 34.3882 36.305 27.3343 38.793C21.8952 40.7115 16.6775 44.4718 11.2974 42.3901C5.49805 40.1461 1.5872 34.4882 0.328218 28.3434C-0.900878 22.3444 1.47019 16.5178 4.972 11.5169C8.82022 6.02136 13.5128 -0.164307 20.173 0.00333395Z" fill="#E6F0FB"/>
<g clip-path="url(#clip0_405_58535)">
<path fill-rule="evenodd" clip-rule="evenodd" d="M30.6404 31.3282C30.0231 33.2042 27.6044 34.1398 25.8764 33.9838C23.5164 33.7704 20.9484 32.5187 18.9991 31.14C16.1337 29.1133 13.4497 25.9784 11.8857 22.6517C10.7804 20.3011 10.5324 17.4109 12.1764 15.2683C12.7844 14.4763 13.4417 14.0533 14.4297 14.0039C15.8004 13.9373 15.9924 14.7214 16.4631 15.9427C16.8137 16.8561 17.2817 17.7877 17.5431 18.7344C18.0324 20.5011 16.3217 20.5749 16.1057 22.0189C15.9711 22.9296 17.0751 24.1508 17.5737 24.8002C18.5511 26.0722 19.7257 27.1693 21.0511 28.0039C21.8097 28.4826 23.0351 29.3452 23.9044 28.8692C25.2431 28.1358 25.1164 25.8786 26.9884 26.6426C27.9577 27.0373 28.8964 27.6068 29.8217 28.1055C31.2524 28.8748 31.1857 29.6722 30.6404 31.3282C31.0484 30.0908 30.2324 32.5655 30.6404 31.3282Z" fill="#0967D2"/>
</g>
<defs>
<clipPath id="clip0_405_58535">
<rect width="20" height="20" fill="white" transform="translate(11 14)"/>
</clipPath>
</defs>
</svg>
