<svg width="47" height="43" viewBox="0 0 47 43" fill="none" xmlns="http://www.w3.org/2000/svg">
<path fill-rule="evenodd" clip-rule="evenodd" d="M20.173 0.00333395C26.7415 0.168666 30.0634 7.31879 34.4532 12.259C39.4525 17.8851 48.6897 22.594 46.7318 29.8919C44.7769 37.1784 34.3882 36.305 27.3343 38.793C21.8952 40.7115 16.6775 44.4718 11.2974 42.3901C5.49805 40.1461 1.5872 34.4882 0.328218 28.3434C-0.900878 22.3444 1.47019 16.5178 4.972 11.5169C8.82022 6.02136 13.5128 -0.164307 20.173 0.00333395Z" fill="#E6FAFB"/>
<path d="M30.3125 17.4996C30.25 17.2496 30 17.1246 29.75 17.1246H27.875V15.2496C27.875 14.9996 27.75 14.7496 27.5 14.6871C27.25 14.5621 27 14.6246 26.8125 14.8121L24.3125 17.3121C24.1875 17.4371 24.125 17.5621 24.125 17.7496V19.9996L20.5625 23.5621C20.3125 23.8121 20.3125 24.1871 20.5625 24.4371C20.6875 24.5621 20.875 24.6246 21 24.6246C21.125 24.6246 21.3125 24.5621 21.4375 24.4371L25 20.8746H27.25C27.4375 20.8746 27.5625 20.8121 27.6875 20.6871L30.1875 18.1871C30.375 17.9996 30.4375 17.7496 30.3125 17.4996Z" fill="#07A2A8"/>
<path d="M22.3125 25.3125C22 25.6875 21.5 25.875 21 25.875C20.5 25.875 20 25.6875 19.6875 25.3125C18.9375 24.5625 18.9375 23.375 19.6875 22.6875L21.4375 20.9375C21.3125 20.875 21.125 20.875 21 20.875C19.25 20.875 17.875 22.25 17.875 24C17.875 25.75 19.25 27.125 21 27.125C22.75 27.125 24.125 25.75 24.125 24C24.125 23.875 24.125 23.6875 24.0625 23.5625L22.3125 25.3125Z" fill="#07A2A8"/>
<path d="M28.5625 21.5625C28.25 21.9375 27.75 22.125 27.25 22.125H25.5L25.0625 22.5625C25.25 23 25.3125 23.5 25.3125 24C25.3125 26.4375 23.375 28.375 20.9375 28.375C18.5 28.375 16.5625 26.4375 16.5625 24C16.5625 21.5625 18.5 19.625 20.9375 19.625C21.4375 19.625 21.9375 19.75 22.375 19.875L22.875 19.5V17.75C22.875 17.25 23.0625 16.75 23.4375 16.4375L24.0625 15.8125C23.0625 15.4375 22.0625 15.25 21 15.25C16.1875 15.25 12.25 19.1875 12.25 24C12.25 28.8125 16.1875 32.75 21 32.75C25.8125 32.75 29.75 28.8125 29.75 24C29.75 22.9375 29.5625 21.9375 29.1875 20.9375L28.5625 21.5625Z" fill="#07A2A8"/>
</svg>
