<svg width="42" height="47" viewBox="0 0 42 47" fill="none" xmlns="http://www.w3.org/2000/svg">
<path fill-rule="evenodd" clip-rule="evenodd" d="M22.3041 0.00482771C29.9489 -0.223803 34.8335 7.71316 38.7613 14.2428C41.9404 19.5277 42.7475 25.6261 41.3215 31.6197C39.9124 37.5427 36.8094 43.2434 31.255 45.794C25.7909 48.3031 19.6934 46.4862 14.1817 44.0825C8.32148 41.5269 1.83278 38.4789 0.305135 32.2968C-1.24094 26.0401 3.40915 20.5247 7.04248 15.1914C11.2896 8.95704 14.7379 0.231109 22.3041 0.00482771Z" fill="#E6FBE9"/>
<path fill-rule="evenodd" clip-rule="evenodd" d="M15.8845 18.8874C14.6641 20.1078 14.6641 22.072 14.6641 26.0003C14.6641 29.9287 14.6641 31.8929 15.8845 33.1132C17.1048 34.3337 19.069 34.3337 22.9974 34.3337C26.9257 34.3337 28.89 34.3337 30.1103 33.1132C31.3307 31.8929 31.3307 29.9287 31.3307 26.0003C31.3307 22.072 31.3307 20.1078 30.1103 18.8874C28.89 17.667 26.9257 17.667 22.9974 17.667C19.069 17.667 17.1048 17.667 15.8845 18.8874ZM24.4557 24.3337C24.4557 24.6788 24.7356 24.9587 25.0807 24.9587H25.6551L23.9781 26.6358C23.8966 26.7172 23.7648 26.7172 23.6834 26.6358L22.3619 25.3143C21.7924 24.7448 20.869 24.7448 20.2995 25.3143L18.3888 27.2251C18.1447 27.4692 18.1447 27.8648 18.3888 28.1089C18.6329 28.353 19.0286 28.353 19.2727 28.1089L21.1834 26.1982C21.2648 26.1168 21.3966 26.1168 21.4781 26.1982L22.7996 27.5197C23.3691 28.0892 24.2924 28.0892 24.8619 27.5197L26.5391 25.8426V26.417C26.5391 26.7622 26.8189 27.042 27.1641 27.042C27.5092 27.042 27.7891 26.7622 27.7891 26.417V24.3337C27.7891 23.9885 27.5092 23.7087 27.1641 23.7087H25.0807C24.7356 23.7087 24.4557 23.9885 24.4557 24.3337Z" fill="#07A81A"/>
</svg>
