<svg width="21" height="21" viewBox="0 0 21 21" fill="none" xmlns="http://www.w3.org/2000/svg">
<path d="M19.8265 10.6623C19.8265 9.93426 19.7661 9.40299 19.6352 8.85205H11.127V12.138H16.1211C16.0205 12.9546 15.4767 14.1844 14.2684 15.0108L14.2515 15.1208L16.9417 17.1571L17.128 17.1753C18.8397 15.6307 19.8265 13.358 19.8265 10.6623Z" fill="#4285F4"/>
<path d="M11.1267 19.3201C13.5734 19.3201 15.6275 18.533 17.1278 17.1753L14.2682 15.0108C13.503 15.5323 12.4759 15.8963 11.1267 15.8963C8.73032 15.8963 6.6964 14.3517 5.97137 12.2168L5.8651 12.2256L3.06783 14.3409L3.03125 14.4402C4.52144 17.3327 7.58241 19.3201 11.1267 19.3201Z" fill="#34A853"/>
<path d="M5.97117 12.2168C5.77986 11.6659 5.66915 11.0755 5.66915 10.4656C5.66915 9.85555 5.77986 9.26527 5.9611 8.71433L5.95604 8.59699L3.12372 6.44775L3.03105 6.49082C2.41687 7.69112 2.06445 9.039 2.06445 10.4656C2.06445 11.8921 2.41687 13.2399 3.03105 14.4402L5.97117 12.2168Z" fill="#FBBC05"/>
<path d="M11.1267 5.03481C12.8283 5.03481 13.9762 5.75301 14.6307 6.35319L17.1882 3.91326C15.6175 2.4867 13.5734 1.61108 11.1267 1.61108C7.58241 1.61108 4.52144 3.59842 3.03125 6.49088L5.96131 8.71438C6.6964 6.57946 8.73032 5.03481 11.1267 5.03481Z" fill="#EB4335"/>
</svg>
