<svg width="536" height="434" viewBox="0 0 536 434" fill="none" xmlns="http://www.w3.org/2000/svg">
<g opacity="0.7">
<path opacity="0.11" d="M132.319 99.1825C132.677 99.4155 132.779 99.8952 132.547 100.254C132.314 100.613 131.835 100.715 131.477 100.482C131.119 100.249 131.017 99.7696 131.249 99.4107C131.482 99.0517 131.961 98.9496 132.319 99.1825Z" fill="white"/>
<path d="M136.743 96.9803C137.012 97.155 137.088 97.5147 136.914 97.7839C136.739 98.053 136.38 98.1296 136.111 97.9549C135.843 97.7803 135.766 97.4205 135.941 97.1514C136.115 96.8823 136.474 96.8057 136.743 96.9803Z" fill="white"/>
<path d="M143.024 110.756C143.293 110.93 143.369 111.29 143.195 111.559C143.021 111.828 142.661 111.905 142.393 111.73C142.124 111.556 142.048 111.196 142.222 110.927C142.396 110.658 142.755 110.581 143.024 110.756Z" fill="white"/>
<path d="M115.04 93.4901C115.308 93.6647 115.385 94.0245 115.21 94.2936C115.036 94.5627 114.677 94.6393 114.408 94.4647C114.14 94.29 114.063 93.9303 114.238 93.6612C114.412 93.392 114.771 93.3154 115.04 93.4901Z" fill="white"/>
<path opacity="0.11" d="M104.038 75.2587C104.396 75.4916 104.498 75.9714 104.266 76.3303C104.033 76.6893 103.554 76.7914 103.196 76.5585C102.837 76.3255 102.735 75.8458 102.968 75.4868C103.2 75.1279 103.679 75.0258 104.038 75.2587Z" fill="white"/>
<path d="M93.2448 78.4012C93.4238 78.5176 93.4748 78.7572 93.3586 78.9366C93.2424 79.1159 93.0031 79.1669 92.8241 79.0505C92.6451 78.9342 92.5942 78.6945 92.7104 78.5151C92.8265 78.3358 93.0658 78.2848 93.2448 78.4012Z" fill="white"/>
<path d="M139.557 85.8817C139.736 85.998 139.787 86.2377 139.671 86.417C139.555 86.5963 139.316 86.6474 139.137 86.531C138.958 86.4146 138.907 86.1749 139.023 85.9956C139.139 85.8163 139.378 85.7653 139.557 85.8817Z" fill="white"/>
<path d="M210.245 131.835C210.424 131.951 210.475 132.191 210.359 132.37C210.242 132.549 210.003 132.601 209.824 132.484C209.645 132.368 209.594 132.128 209.71 131.949C209.827 131.769 210.066 131.718 210.245 131.835Z" fill="white"/>
<path d="M234.229 172.354C234.408 172.471 234.459 172.71 234.343 172.89C234.227 173.069 233.988 173.12 233.809 173.004C233.629 172.887 233.579 172.648 233.695 172.468C233.811 172.289 234.05 172.238 234.229 172.354Z" fill="white"/>
<path d="M262.237 156.863C262.416 156.979 262.467 157.219 262.351 157.399C262.235 157.578 261.995 157.629 261.816 157.512C261.637 157.396 261.586 157.156 261.703 156.977C261.819 156.798 262.058 156.747 262.237 156.863Z" fill="white"/>
<path d="M26.3073 23.8055C26.4863 23.9219 26.5373 24.1615 26.4211 24.3408C26.3049 24.5202 26.0656 24.5712 25.8866 24.4548C25.7076 24.3385 25.6567 24.0988 25.7729 23.9194C25.889 23.7401 26.1283 23.6891 26.3073 23.8055Z" fill="white"/>
<path opacity="0.11" d="M10.0808 38.1863C10.2598 38.3027 10.3107 38.5424 10.1945 38.7217C10.0784 38.9011 9.83907 38.9521 9.66006 38.8357C9.48105 38.7193 9.4301 38.4797 9.54627 38.3003C9.66244 38.121 9.90175 38.07 10.0808 38.1863Z" fill="white"/>
<path opacity="0.11" d="M0.979173 21.6512C1.15818 21.7676 1.20913 22.0073 1.09296 22.1866C0.976792 22.3659 0.737511 22.4169 0.558501 22.3005C0.379491 22.1842 0.328541 21.9445 0.444711 21.7652C0.560882 21.5859 0.800163 21.5349 0.979173 21.6512Z" fill="white"/>
<path opacity="0.11" d="M24.3073 9.11701C24.4863 9.23338 24.5373 9.47309 24.4211 9.6524C24.3049 9.83172 24.0656 9.88273 23.8866 9.76636C23.7076 9.65 23.6567 9.41032 23.7728 9.231C23.889 9.05169 24.1283 9.00064 24.3073 9.11701Z" fill="white"/>
<path opacity="0.11" d="M93.0651 72.2801C93.2441 72.3965 93.2951 72.6362 93.1789 72.8155C93.0627 72.9948 92.8234 73.0458 92.6444 72.9294C92.4654 72.8131 92.4145 72.5734 92.5306 72.3941C92.6468 72.2148 92.8861 72.1638 93.0651 72.2801Z" fill="white"/>
<path opacity="0.11" d="M146.487 73.7664C146.666 73.8828 146.717 74.1225 146.601 74.3018C146.485 74.4811 146.245 74.5321 146.066 74.4158C145.887 74.2994 145.836 74.0597 145.953 73.8804C146.069 73.7011 146.308 73.6501 146.487 73.7664Z" fill="white"/>
<path opacity="0.11" d="M206.635 117.488C206.814 117.604 206.865 117.844 206.749 118.023C206.633 118.203 206.394 118.254 206.215 118.137C206.036 118.021 205.985 117.781 206.101 117.602C206.217 117.423 206.456 117.372 206.635 117.488Z" fill="white"/>
<path opacity="0.3" d="M35.9636 41.6238C36.1426 41.7402 36.1935 41.9799 36.0774 42.1592C35.9612 42.3385 35.7219 42.3896 35.5429 42.2732C35.3639 42.1568 35.3129 41.9171 35.4291 41.7378C35.5453 41.5585 35.7846 41.5075 35.9636 41.6238Z" fill="white"/>
<path d="M99.1823 107.648C99.3613 107.765 99.4123 108.004 99.2961 108.184C99.1799 108.363 98.9406 108.414 98.7616 108.298C98.5826 108.181 98.5317 107.942 98.6478 107.762C98.764 107.583 99.0033 107.532 99.1823 107.648Z" fill="white"/>
<path d="M148.698 140.761C148.877 140.877 148.928 141.117 148.812 141.296C148.696 141.475 148.456 141.526 148.277 141.41C148.098 141.294 148.047 141.054 148.163 140.875C148.28 140.695 148.519 140.644 148.698 140.761Z" fill="white"/>
<path d="M96.4948 63.4295C96.6738 63.5459 96.7248 63.7856 96.6086 63.9649C96.4924 64.1442 96.2531 64.1952 96.0741 64.0789C95.8951 63.9625 95.8442 63.7228 95.9603 63.5435C96.0765 63.3642 96.3158 63.3132 96.4948 63.4295Z" fill="white"/>
<path opacity="0.3" d="M73.7917 48.6727C73.9707 48.7891 74.0216 49.0288 73.9055 49.2081C73.7893 49.3874 73.55 49.4384 73.371 49.322C73.192 49.2057 73.141 48.966 73.2572 48.7867C73.3734 48.6074 73.6127 48.5563 73.7917 48.6727Z" fill="white"/>
<path opacity="0.11" d="M34.1589 51.5291C34.3379 51.6455 34.3888 51.8852 34.2727 52.0645C34.1565 52.2438 33.9172 52.2948 33.7382 52.1785C33.5592 52.0621 33.5083 51.8224 33.6244 51.6431C33.7406 51.4638 33.9799 51.4128 34.1589 51.5291Z" fill="white"/>
<path opacity="0.3" d="M110.073 103.648C110.252 103.765 110.303 104.004 110.187 104.184C110.071 104.363 109.831 104.414 109.652 104.298C109.473 104.181 109.422 103.942 109.538 103.762C109.655 103.583 109.894 103.532 110.073 103.648Z" fill="white"/>
<path opacity="0.3" d="M106.01 60.8416C106.189 60.958 106.24 61.1977 106.124 61.377C106.008 61.5563 105.769 61.6073 105.59 61.491C105.411 61.3746 105.36 61.1349 105.476 60.9556C105.592 60.7763 105.831 60.7252 106.01 60.8416Z" fill="white"/>
<path opacity="0.3" d="M68.8698 32.0877C69.0488 32.2041 69.0998 32.4438 68.9836 32.6231C68.8674 32.8024 68.6281 32.8534 68.4491 32.7371C68.2701 32.6207 68.2192 32.381 68.3353 32.2017C68.4515 32.0224 68.6908 31.9714 68.8698 32.0877Z" fill="white"/>
<path opacity="0.3" d="M45.3698 47.7371C45.5488 47.8535 45.5998 48.0932 45.4836 48.2725C45.3674 48.4518 45.1281 48.5028 44.9491 48.3865C44.7701 48.2701 44.7192 48.0304 44.8354 47.8511C44.9515 47.6718 45.1908 47.6208 45.3698 47.7371Z" fill="white"/>
<path opacity="0.3" d="M246.432 179.827C246.611 179.943 246.662 180.183 246.546 180.362C246.43 180.542 246.191 180.593 246.012 180.476C245.833 180.36 245.782 180.12 245.898 179.941C246.014 179.762 246.253 179.711 246.432 179.827Z" fill="white"/>
<path opacity="0.11" d="M185.596 159.208C185.775 159.324 185.826 159.564 185.71 159.743C185.594 159.923 185.355 159.974 185.176 159.857C184.997 159.741 184.946 159.501 185.062 159.322C185.178 159.143 185.417 159.091 185.596 159.208Z" fill="white"/>
<path opacity="0.11" d="M246.729 160.17C246.908 160.286 246.959 160.526 246.843 160.705C246.727 160.884 246.488 160.935 246.309 160.819C246.129 160.703 246.079 160.463 246.195 160.284C246.311 160.104 246.55 160.053 246.729 160.17Z" fill="white"/>
<path opacity="0.3" d="M166.585 103.913C166.943 104.146 167.045 104.626 166.812 104.985C166.58 105.344 166.101 105.446 165.743 105.213C165.384 104.98 165.282 104.5 165.515 104.141C165.747 103.782 166.226 103.68 166.585 103.913Z" fill="white"/>
<path opacity="0.11" d="M179.405 126.095C179.763 126.328 179.865 126.807 179.633 127.166C179.4 127.525 178.921 127.627 178.563 127.394C178.205 127.161 178.103 126.682 178.335 126.323C178.568 125.964 179.047 125.862 179.405 126.095Z" fill="white"/>
<path d="M171.876 137.357C172.144 137.532 172.221 137.892 172.046 138.161C171.872 138.43 171.513 138.506 171.244 138.332C170.976 138.157 170.899 137.797 171.074 137.528C171.248 137.259 171.607 137.183 171.876 137.357Z" fill="white"/>
<path d="M171.602 88.7069C171.871 88.8816 171.947 89.2413 171.773 89.5104C171.599 89.7795 171.24 89.8561 170.971 89.6815C170.702 89.5068 170.626 89.1471 170.8 88.878C170.974 88.6088 171.334 88.5323 171.602 88.7069Z" fill="white"/>
<path d="M283.469 152.195C283.738 152.37 283.815 152.73 283.64 152.999C283.466 153.268 283.107 153.344 282.838 153.17C282.569 152.995 282.493 152.635 282.667 152.366C282.842 152.097 283.201 152.021 283.469 152.195Z" fill="white"/>
<path d="M69.4303 20.9091C69.699 21.0837 69.7755 21.4434 69.6011 21.7126C69.4268 21.9817 69.0676 22.0583 68.799 21.8836C68.5303 21.709 68.4538 21.3492 68.6282 21.0801C68.8025 20.811 69.1617 20.7344 69.4303 20.9091Z" fill="white"/>
<path d="M21.4616 0.34457C21.7303 0.51922 21.8067 0.878991 21.6324 1.14811C21.458 1.41723 21.0989 1.49381 20.8302 1.31916C20.5615 1.14451 20.4851 0.784774 20.6594 0.515652C20.8338 0.24653 21.1929 0.169921 21.4616 0.34457Z" fill="white"/>
<path d="M7.53193 9.75375C7.8006 9.9284 7.87706 10.2881 7.7027 10.5573C7.52835 10.8264 7.16919 10.903 6.90053 10.7283C6.63186 10.5537 6.55542 10.1939 6.72977 9.9248C6.90413 9.65568 7.26326 9.5791 7.53193 9.75375Z" fill="white"/>
<path d="M160.524 120.744C160.793 120.919 160.869 121.278 160.695 121.547C160.521 121.817 160.161 121.893 159.893 121.719C159.624 121.544 159.548 121.184 159.722 120.915C159.896 120.646 160.255 120.569 160.524 120.744Z" fill="white"/>
<path d="M119.665 60.0272C119.933 60.2018 120.01 60.5616 119.836 60.8307C119.661 61.0998 119.302 61.1764 119.033 61.0018C118.765 60.8271 118.688 60.4674 118.863 60.1982C119.037 59.9291 119.396 59.8525 119.665 60.0272Z" fill="white"/>
<path d="M210.438 99.1796C210.707 99.3542 210.783 99.714 210.609 99.9831C210.435 100.252 210.075 100.329 209.807 100.154C209.538 99.9795 209.462 99.6197 209.636 99.3506C209.81 99.0815 210.169 99.0049 210.438 99.1796Z" fill="white"/>
<path d="M282.055 177.131C282.324 177.305 282.4 177.665 282.226 177.934C282.052 178.203 281.693 178.28 281.424 178.105C281.155 177.931 281.079 177.571 281.253 177.302C281.428 177.033 281.787 176.956 282.055 177.131Z" fill="white"/>
<path d="M278.266 200.056C278.535 200.231 278.611 200.591 278.437 200.86C278.263 201.129 277.904 201.206 277.635 201.031C277.366 200.856 277.29 200.497 277.464 200.228C277.638 199.958 277.998 199.882 278.266 200.056Z" fill="white"/>
<path opacity="0.3" d="M198.835 154.426C199.193 154.659 199.295 155.138 199.062 155.497C198.83 155.856 198.351 155.958 197.993 155.725C197.634 155.493 197.532 155.013 197.765 154.654C197.997 154.295 198.476 154.193 198.835 154.426Z" fill="white"/>
<path d="M183.897 177.487C184.255 177.72 184.357 178.2 184.125 178.559C183.892 178.918 183.413 179.02 183.055 178.787C182.697 178.554 182.595 178.074 182.827 177.715C183.06 177.356 183.539 177.254 183.897 177.487Z" fill="white"/>
<path d="M220.173 158.135C220.441 158.309 220.518 158.669 220.343 158.938C220.169 159.207 219.81 159.284 219.541 159.109C219.272 158.935 219.196 158.575 219.37 158.306C219.545 158.037 219.904 157.96 220.173 158.135Z" fill="white"/>
<path opacity="0.3" d="M227.694 181.026C228.052 181.259 228.154 181.739 227.922 182.098C227.689 182.457 227.21 182.559 226.852 182.326C226.494 182.093 226.392 181.613 226.624 181.254C226.857 180.895 227.336 180.793 227.694 181.026Z" fill="white"/>
<path opacity="0.3" d="M274.741 178.834C275.099 179.067 275.201 179.547 274.969 179.906C274.736 180.264 274.257 180.367 273.899 180.134C273.54 179.901 273.439 179.421 273.671 179.062C273.904 178.703 274.383 178.601 274.741 178.834Z" fill="white"/>
<path opacity="0.3" d="M237.217 153.521C237.576 153.754 237.678 154.234 237.445 154.593C237.213 154.952 236.734 155.054 236.375 154.821C236.017 154.588 235.915 154.108 236.148 153.75C236.38 153.391 236.859 153.288 237.217 153.521Z" fill="white"/>
<path opacity="0.3" d="M54.655 27.0019C55.0133 27.2348 55.1153 27.7146 54.8827 28.0735C54.6502 28.4324 54.1712 28.5346 53.8129 28.3016C53.4545 28.0687 53.3526 27.5889 53.5851 27.23C53.8176 26.8711 54.2966 26.7689 54.655 27.0019Z" fill="white"/>
<path opacity="0.3" d="M16.8112 27.7909C17.1695 28.0238 17.2715 28.5036 17.039 28.8626C16.8064 29.2215 16.3274 29.3236 15.9691 29.0907C15.6108 28.8578 15.5088 28.378 15.7414 28.0191C15.9739 27.6601 16.4529 27.558 16.8112 27.7909Z" fill="white"/>
<path opacity="0.11" d="M255.124 179.936C255.482 180.169 255.584 180.649 255.351 181.008C255.119 181.367 254.64 181.469 254.282 181.236C253.923 181.003 253.821 180.523 254.054 180.165C254.286 179.806 254.765 179.703 255.124 179.936Z" fill="white"/>
<path opacity="0.3" d="M56.03 68.9784C56.3883 69.2113 56.4903 69.6911 56.2577 70.0501C56.0252 70.409 55.5462 70.5111 55.1879 70.2782C54.8295 70.0453 54.7276 69.5655 54.9601 69.2066C55.1926 68.8476 55.6717 68.7455 56.03 68.9784Z" fill="white"/>
<path opacity="0.11" d="M43.069 69.784C43.4274 70.017 43.5293 70.4968 43.2968 70.8557C43.0642 71.2147 42.5853 71.3168 42.2269 71.0839C41.8686 70.8509 41.7666 70.3711 41.9992 70.0122C42.2317 69.6533 42.7107 69.5511 43.069 69.784Z" fill="white"/>
<path opacity="0.3" d="M53.944 47.3085C54.3023 47.5414 54.4043 48.0212 54.1718 48.3802C53.9392 48.7391 53.4603 48.8412 53.1019 48.6083C52.7436 48.3754 52.6416 47.8956 52.8742 47.5366C53.1067 47.1777 53.5857 47.0756 53.944 47.3085Z" fill="white"/>
<path d="M73.9929 60.8075C74.2615 60.9821 74.338 61.3419 74.1636 61.611C73.9893 61.8801 73.6301 61.9567 73.3615 61.7821C73.0928 61.6074 73.0163 61.2477 73.1907 60.9785C73.365 60.7094 73.7242 60.6328 73.9929 60.8075Z" fill="white"/>
<path opacity="0.11" d="M180.194 271.278C180.552 271.511 180.654 271.991 180.422 272.35C180.189 272.709 179.71 272.811 179.352 272.578C178.994 272.345 178.892 271.865 179.124 271.506C179.357 271.147 179.836 271.045 180.194 271.278Z" fill="white"/>
<path d="M184.618 269.074C184.887 269.249 184.963 269.608 184.789 269.878C184.614 270.147 184.255 270.223 183.986 270.049C183.718 269.874 183.641 269.514 183.816 269.245C183.99 268.976 184.349 268.899 184.618 269.074Z" fill="white"/>
<path d="M190.907 282.851C191.176 283.026 191.252 283.386 191.078 283.655C190.903 283.924 190.544 284.001 190.276 283.826C190.007 283.651 189.93 283.292 190.105 283.022C190.279 282.753 190.638 282.677 190.907 282.851Z" fill="white"/>
<path d="M162.915 265.584C163.183 265.758 163.26 266.118 163.086 266.387C162.911 266.656 162.552 266.733 162.283 266.558C162.015 266.384 161.938 266.024 162.113 265.755C162.287 265.486 162.646 265.409 162.915 265.584Z" fill="white"/>
<path opacity="0.11" d="M151.913 247.352C152.271 247.585 152.373 248.065 152.141 248.424C151.908 248.783 151.429 248.885 151.071 248.652C150.712 248.419 150.61 247.939 150.843 247.581C151.075 247.222 151.554 247.119 151.913 247.352Z" fill="white"/>
<path d="M141.128 250.495C141.307 250.611 141.358 250.851 141.241 251.03C141.125 251.21 140.886 251.261 140.707 251.144C140.528 251.028 140.477 250.788 140.593 250.609C140.709 250.43 140.949 250.379 141.128 250.495Z" fill="white"/>
<path d="M187.432 257.975C187.611 258.092 187.662 258.331 187.546 258.511C187.43 258.69 187.191 258.741 187.012 258.625C186.833 258.508 186.782 258.269 186.898 258.089C187.014 257.91 187.253 257.859 187.432 257.975Z" fill="white"/>
<path d="M258.128 303.93C258.307 304.046 258.358 304.286 258.241 304.465C258.125 304.644 257.886 304.695 257.707 304.579C257.528 304.463 257.477 304.223 257.593 304.043C257.709 303.864 257.949 303.813 258.128 303.93Z" fill="white"/>
<path d="M282.104 344.448C282.283 344.564 282.334 344.804 282.218 344.983C282.102 345.163 281.863 345.214 281.684 345.097C281.504 344.981 281.454 344.741 281.57 344.562C281.686 344.383 281.925 344.332 282.104 344.448Z" fill="white"/>
<path d="M310.12 328.956C310.299 329.072 310.35 329.312 310.234 329.491C310.117 329.671 309.878 329.722 309.699 329.605C309.52 329.489 309.469 329.249 309.585 329.07C309.702 328.891 309.941 328.84 310.12 328.956Z" fill="white"/>
<path d="M74.1823 195.901C74.3613 196.018 74.4123 196.257 74.2961 196.437C74.1799 196.616 73.9406 196.667 73.7616 196.551C73.5826 196.434 73.5317 196.194 73.6478 196.015C73.764 195.836 74.0033 195.785 74.1823 195.901Z" fill="white"/>
<path opacity="0.11" d="M57.9557 210.28C58.1348 210.396 58.1857 210.636 58.0695 210.815C57.9534 210.995 57.7141 211.046 57.5351 210.929C57.3561 210.813 57.3051 210.573 57.4213 210.394C57.5374 210.215 57.7767 210.164 57.9557 210.28Z" fill="white"/>
<path opacity="0.11" d="M48.8542 193.745C49.0332 193.861 49.0841 194.101 48.968 194.28C48.8518 194.46 48.6125 194.511 48.4335 194.394C48.2545 194.278 48.2036 194.038 48.3197 193.859C48.4359 193.68 48.6752 193.629 48.8542 193.745Z" fill="white"/>
<path opacity="0.11" d="M72.1823 181.212C72.3613 181.328 72.4123 181.568 72.2961 181.747C72.1799 181.926 71.9406 181.977 71.7616 181.861C71.5826 181.745 71.5317 181.505 71.6478 181.326C71.764 181.146 72.0033 181.095 72.1823 181.212Z" fill="white"/>
<path opacity="0.11" d="M140.94 244.376C141.119 244.492 141.17 244.732 141.054 244.911C140.938 245.091 140.698 245.142 140.519 245.025C140.34 244.909 140.289 244.669 140.406 244.49C140.522 244.31 140.761 244.259 140.94 244.376Z" fill="white"/>
<path opacity="0.11" d="M194.362 245.86C194.541 245.977 194.592 246.216 194.476 246.396C194.36 246.575 194.12 246.626 193.941 246.51C193.762 246.393 193.711 246.153 193.828 245.974C193.944 245.795 194.183 245.744 194.362 245.86Z" fill="white"/>
<path opacity="0.11" d="M254.518 289.583C254.697 289.699 254.748 289.939 254.632 290.118C254.516 290.298 254.277 290.349 254.098 290.232C253.919 290.116 253.868 289.876 253.984 289.697C254.1 289.517 254.339 289.466 254.518 289.583Z" fill="white"/>
<path opacity="0.3" d="M83.8386 213.72C84.0176 213.836 84.0685 214.076 83.9524 214.255C83.8362 214.434 83.5969 214.485 83.4179 214.369C83.2389 214.253 83.1879 214.013 83.3041 213.834C83.4203 213.654 83.6596 213.603 83.8386 213.72Z" fill="white"/>
<path d="M147.057 279.744C147.236 279.86 147.287 280.1 147.171 280.279C147.055 280.459 146.816 280.51 146.637 280.393C146.458 280.277 146.407 280.037 146.523 279.858C146.639 279.679 146.878 279.628 147.057 279.744Z" fill="white"/>
<path d="M196.581 312.855C196.76 312.972 196.811 313.211 196.695 313.391C196.578 313.57 196.339 313.621 196.16 313.505C195.981 313.388 195.93 313.149 196.046 312.969C196.162 312.79 196.402 312.739 196.581 312.855Z" fill="white"/>
<path d="M144.37 235.524C144.549 235.641 144.6 235.88 144.484 236.06C144.367 236.239 144.128 236.29 143.949 236.174C143.77 236.057 143.719 235.818 143.835 235.638C143.952 235.459 144.191 235.408 144.37 235.524Z" fill="white"/>
<path opacity="0.3" d="M121.667 220.768C121.846 220.885 121.897 221.124 121.78 221.304C121.664 221.483 121.425 221.534 121.246 221.418C121.067 221.301 121.016 221.062 121.132 220.882C121.248 220.703 121.488 220.652 121.667 220.768Z" fill="white"/>
<path opacity="0.11" d="M82.0339 223.623C82.2129 223.739 82.2638 223.979 82.1477 224.158C82.0315 224.338 81.7922 224.389 81.6132 224.272C81.4342 224.156 81.3832 223.916 81.4994 223.737C81.6156 223.558 81.8549 223.506 82.0339 223.623Z" fill="white"/>
<path opacity="0.3" d="M157.948 275.741C158.127 275.857 158.178 276.097 158.062 276.276C157.946 276.456 157.706 276.507 157.527 276.39C157.348 276.274 157.297 276.034 157.413 275.855C157.53 275.676 157.769 275.625 157.948 275.741Z" fill="white"/>
<path opacity="0.3" d="M153.885 232.936C154.064 233.053 154.115 233.292 153.999 233.472C153.883 233.651 153.644 233.702 153.465 233.586C153.286 233.469 153.235 233.23 153.351 233.05C153.467 232.871 153.706 232.82 153.885 232.936Z" fill="white"/>
<path opacity="0.3" d="M116.753 204.181C116.932 204.298 116.983 204.538 116.866 204.717C116.75 204.896 116.511 204.947 116.332 204.831C116.153 204.714 116.102 204.475 116.218 204.295C116.334 204.116 116.574 204.065 116.753 204.181Z" fill="white"/>
<path opacity="0.3" d="M93.2448 219.831C93.4238 219.947 93.4748 220.187 93.3586 220.366C93.2424 220.546 93.0031 220.597 92.8241 220.48C92.6451 220.364 92.5942 220.124 92.7103 219.945C92.8265 219.766 93.0658 219.715 93.2448 219.831Z" fill="white"/>
<path opacity="0.3" d="M294.315 351.921C294.494 352.037 294.545 352.277 294.429 352.456C294.313 352.635 294.073 352.686 293.894 352.57C293.715 352.454 293.664 352.214 293.781 352.035C293.897 351.855 294.136 351.804 294.315 351.921Z" fill="white"/>
<path opacity="0.11" d="M233.479 331.302C233.658 331.418 233.709 331.658 233.593 331.837C233.477 332.016 233.238 332.067 233.059 331.951C232.879 331.835 232.829 331.595 232.945 331.416C233.061 331.236 233.3 331.185 233.479 331.302Z" fill="white"/>
<path opacity="0.11" d="M294.604 332.264C294.783 332.38 294.834 332.62 294.718 332.799C294.602 332.978 294.363 333.029 294.184 332.913C294.004 332.796 293.954 332.557 294.07 332.377C294.186 332.198 294.425 332.147 294.604 332.264Z" fill="white"/>
<path opacity="0.3" d="M214.46 276.007C214.818 276.24 214.92 276.719 214.687 277.078C214.455 277.437 213.976 277.539 213.618 277.307C213.259 277.074 213.157 276.594 213.39 276.235C213.622 275.876 214.101 275.774 214.46 276.007Z" fill="white"/>
<path opacity="0.11" d="M227.28 298.188C227.638 298.421 227.74 298.901 227.508 299.26C227.275 299.619 226.796 299.721 226.438 299.488C226.08 299.255 225.978 298.775 226.21 298.417C226.443 298.058 226.922 297.955 227.28 298.188Z" fill="white"/>
<path d="M219.751 309.453C220.019 309.628 220.096 309.987 219.921 310.257C219.747 310.526 219.388 310.602 219.119 310.428C218.851 310.253 218.774 309.893 218.949 309.624C219.123 309.355 219.482 309.278 219.751 309.453Z" fill="white"/>
<path d="M219.477 260.801C219.746 260.975 219.822 261.335 219.648 261.604C219.474 261.873 219.115 261.95 218.846 261.775C218.577 261.601 218.501 261.241 218.675 260.972C218.849 260.703 219.209 260.626 219.477 260.801Z" fill="white"/>
<path d="M331.344 324.289C331.613 324.464 331.69 324.823 331.515 325.092C331.341 325.362 330.982 325.438 330.713 325.264C330.444 325.089 330.368 324.729 330.542 324.46C330.717 324.191 331.076 324.114 331.344 324.289Z" fill="white"/>
<path d="M117.305 193.004C117.574 193.178 117.65 193.538 117.476 193.807C117.302 194.076 116.943 194.153 116.674 193.978C116.405 193.804 116.329 193.444 116.503 193.175C116.678 192.906 117.037 192.829 117.305 193.004Z" fill="white"/>
<path d="M69.3444 172.439C69.6131 172.614 69.6895 172.974 69.5152 173.243C69.3408 173.512 68.9817 173.589 68.713 173.414C68.4444 173.239 68.3679 172.88 68.5423 172.61C68.7166 172.341 69.0757 172.265 69.3444 172.439Z" fill="white"/>
<path d="M55.4147 181.849C55.6834 182.024 55.7599 182.384 55.5855 182.653C55.4112 182.922 55.052 182.999 54.7833 182.824C54.5147 182.649 54.4382 182.29 54.6126 182.021C54.7869 181.751 55.1461 181.675 55.4147 181.849Z" fill="white"/>
<path d="M208.399 292.838C208.668 293.012 208.744 293.372 208.57 293.641C208.396 293.91 208.036 293.987 207.768 293.812C207.499 293.638 207.423 293.278 207.597 293.009C207.771 292.74 208.13 292.663 208.399 292.838Z" fill="white"/>
<path d="M167.548 232.123C167.816 232.298 167.893 232.657 167.718 232.926C167.544 233.196 167.185 233.272 166.916 233.097C166.647 232.923 166.571 232.563 166.745 232.294C166.92 232.025 167.279 231.948 167.548 232.123Z" fill="white"/>
<path d="M258.313 271.275C258.582 271.45 258.658 271.81 258.484 272.079C258.31 272.348 257.95 272.424 257.682 272.25C257.413 272.075 257.337 271.715 257.511 271.446C257.685 271.177 258.045 271.101 258.313 271.275Z" fill="white"/>
<path d="M329.938 349.226C330.207 349.401 330.283 349.761 330.109 350.03C329.935 350.299 329.575 350.376 329.307 350.201C329.038 350.026 328.962 349.667 329.136 349.397C329.31 349.128 329.669 349.052 329.938 349.226Z" fill="white"/>
<path d="M326.149 372.148C326.418 372.323 326.494 372.683 326.32 372.952C326.146 373.221 325.786 373.298 325.518 373.123C325.249 372.948 325.173 372.588 325.347 372.319C325.521 372.05 325.88 371.974 326.149 372.148Z" fill="white"/>
<path opacity="0.3" d="M246.717 326.519C247.076 326.752 247.178 327.232 246.945 327.591C246.713 327.95 246.234 328.052 245.875 327.819C245.517 327.586 245.415 327.106 245.648 326.748C245.88 326.389 246.359 326.286 246.717 326.519Z" fill="white"/>
<path d="M231.772 349.582C232.13 349.815 232.232 350.295 232 350.654C231.767 351.013 231.288 351.115 230.93 350.882C230.572 350.649 230.47 350.169 230.702 349.81C230.935 349.451 231.414 349.349 231.772 349.582Z" fill="white"/>
<path d="M268.048 330.23C268.316 330.405 268.393 330.765 268.218 331.034C268.044 331.303 267.685 331.38 267.416 331.205C267.147 331.03 267.071 330.671 267.245 330.401C267.42 330.132 267.779 330.056 268.048 330.23Z" fill="white"/>
<path opacity="0.3" d="M275.569 353.121C275.927 353.354 276.029 353.834 275.797 354.193C275.564 354.552 275.085 354.654 274.727 354.421C274.369 354.188 274.267 353.708 274.499 353.349C274.732 352.99 275.211 352.888 275.569 353.121Z" fill="white"/>
<path opacity="0.3" d="M322.616 350.928C322.974 351.161 323.076 351.64 322.844 351.999C322.611 352.358 322.132 352.46 321.774 352.227C321.415 351.994 321.314 351.515 321.546 351.156C321.779 350.797 322.258 350.695 322.616 350.928Z" fill="white"/>
<path opacity="0.3" d="M285.092 325.615C285.451 325.848 285.553 326.328 285.32 326.687C285.088 327.046 284.609 327.148 284.25 326.915C283.892 326.682 283.79 326.202 284.023 325.843C284.255 325.484 284.734 325.382 285.092 325.615Z" fill="white"/>
<path opacity="0.3" d="M102.538 199.096C102.896 199.329 102.998 199.808 102.766 200.167C102.533 200.526 102.054 200.628 101.696 200.395C101.337 200.162 101.235 199.683 101.468 199.324C101.7 198.965 102.179 198.863 102.538 199.096Z" fill="white"/>
<path opacity="0.3" d="M64.6862 199.885C65.0445 200.118 65.1465 200.597 64.914 200.956C64.6814 201.315 64.2024 201.417 63.8441 201.184C63.4858 200.952 63.3838 200.472 63.6164 200.113C63.8489 199.754 64.3279 199.652 64.6862 199.885Z" fill="white"/>
<path opacity="0.11" d="M303.007 352.03C303.365 352.263 303.467 352.743 303.234 353.102C303.002 353.461 302.523 353.563 302.164 353.33C301.806 353.097 301.704 352.617 301.937 352.258C302.169 351.899 302.648 351.797 303.007 352.03Z" fill="white"/>
<path opacity="0.3" d="M103.905 241.073C104.263 241.306 104.365 241.786 104.133 242.145C103.9 242.504 103.421 242.606 103.063 242.373C102.705 242.14 102.603 241.66 102.835 241.301C103.068 240.942 103.547 240.84 103.905 241.073Z" fill="white"/>
<path opacity="0.11" d="M90.944 241.878C91.3023 242.111 91.4043 242.591 91.1718 242.949C90.9392 243.308 90.4602 243.411 90.1019 243.178C89.7436 242.945 89.6416 242.465 89.8742 242.106C90.1067 241.747 90.5857 241.645 90.944 241.878Z" fill="white"/>
<path opacity="0.3" d="M101.819 219.403C102.177 219.636 102.279 220.116 102.047 220.475C101.814 220.834 101.335 220.936 100.977 220.703C100.619 220.47 100.517 219.99 100.749 219.631C100.982 219.272 101.461 219.17 101.819 219.403Z" fill="white"/>
<path d="M121.876 232.903C122.144 233.078 122.221 233.438 122.046 233.707C121.872 233.976 121.513 234.052 121.244 233.878C120.976 233.703 120.899 233.343 121.074 233.074C121.248 232.805 121.607 232.729 121.876 232.903Z" fill="white"/>
<path opacity="0.11" d="M383.686 331.227C384.045 331.46 384.146 331.94 383.914 332.299C383.681 332.658 383.202 332.76 382.844 332.527C382.486 332.294 382.384 331.814 382.616 331.456C382.849 331.097 383.328 330.994 383.686 331.227Z" fill="white"/>
<path d="M388.11 329.023C388.379 329.198 388.455 329.558 388.281 329.827C388.106 330.096 387.747 330.173 387.479 329.998C387.21 329.823 387.134 329.463 387.308 329.194C387.482 328.925 387.841 328.849 388.11 329.023Z" fill="white"/>
<path d="M394.391 342.801C394.66 342.975 394.736 343.335 394.562 343.604C394.388 343.873 394.029 343.95 393.76 343.775C393.491 343.601 393.415 343.241 393.589 342.972C393.763 342.703 394.123 342.626 394.391 342.801Z" fill="white"/>
<path d="M366.407 325.534C366.676 325.709 366.752 326.068 366.578 326.338C366.403 326.607 366.044 326.683 365.776 326.509C365.507 326.334 365.43 325.974 365.605 325.705C365.779 325.436 366.138 325.359 366.407 325.534Z" fill="white"/>
<path opacity="0.11" d="M355.405 307.304C355.763 307.537 355.865 308.016 355.633 308.375C355.4 308.734 354.921 308.836 354.563 308.603C354.205 308.37 354.103 307.891 354.335 307.532C354.568 307.173 355.047 307.071 355.405 307.304Z" fill="white"/>
<path d="M344.612 310.444C344.791 310.561 344.842 310.8 344.726 310.98C344.61 311.159 344.37 311.21 344.191 311.094C344.012 310.977 343.961 310.737 344.078 310.558C344.194 310.379 344.433 310.328 344.612 310.444Z" fill="white"/>
<path d="M390.917 317.927C391.096 318.043 391.147 318.283 391.03 318.462C390.914 318.641 390.675 318.692 390.496 318.576C390.317 318.46 390.266 318.22 390.382 318.041C390.498 317.861 390.738 317.81 390.917 317.927Z" fill="white"/>
<path d="M461.62 363.879C461.799 363.995 461.85 364.235 461.734 364.414C461.617 364.593 461.378 364.644 461.199 364.528C461.02 364.412 460.969 364.172 461.085 363.993C461.202 363.813 461.441 363.762 461.62 363.879Z" fill="white"/>
<path d="M485.596 404.398C485.775 404.515 485.826 404.754 485.71 404.934C485.594 405.113 485.355 405.164 485.176 405.048C484.997 404.931 484.946 404.692 485.062 404.512C485.178 404.333 485.417 404.282 485.596 404.398Z" fill="white"/>
<path d="M513.604 388.906C513.783 389.022 513.834 389.262 513.718 389.441C513.602 389.621 513.363 389.672 513.184 389.555C513.005 389.439 512.954 389.199 513.07 389.02C513.186 388.841 513.425 388.79 513.604 388.906Z" fill="white"/>
<path d="M277.675 255.85C277.854 255.967 277.904 256.206 277.788 256.386C277.672 256.565 277.433 256.616 277.254 256.5C277.075 256.383 277.024 256.144 277.14 255.964C277.256 255.785 277.496 255.734 277.675 255.85Z" fill="white"/>
<path opacity="0.11" d="M261.448 270.229C261.627 270.346 261.678 270.585 261.562 270.765C261.446 270.944 261.206 270.995 261.027 270.879C260.848 270.762 260.797 270.523 260.913 270.343C261.03 270.164 261.269 270.113 261.448 270.229Z" fill="white"/>
<path opacity="0.11" d="M252.346 253.694C252.525 253.811 252.576 254.05 252.46 254.23C252.344 254.409 252.105 254.46 251.926 254.344C251.747 254.227 251.696 253.987 251.812 253.808C251.928 253.629 252.167 253.578 252.346 253.694Z" fill="white"/>
<path opacity="0.11" d="M275.675 241.161C275.854 241.277 275.904 241.517 275.788 241.696C275.672 241.876 275.433 241.927 275.254 241.81C275.075 241.694 275.024 241.454 275.14 241.275C275.256 241.096 275.496 241.045 275.675 241.161Z" fill="white"/>
<path opacity="0.11" d="M344.432 304.325C344.611 304.441 344.662 304.681 344.546 304.86C344.43 305.04 344.191 305.091 344.012 304.974C343.833 304.858 343.782 304.618 343.898 304.439C344.014 304.26 344.253 304.209 344.432 304.325Z" fill="white"/>
<path opacity="0.11" d="M397.846 305.81C398.025 305.927 398.076 306.166 397.96 306.346C397.844 306.525 397.605 306.576 397.426 306.46C397.247 306.343 397.196 306.104 397.312 305.924C397.428 305.745 397.667 305.694 397.846 305.81Z" fill="white"/>
<path opacity="0.11" d="M458.003 349.532C458.182 349.648 458.233 349.888 458.116 350.067C458 350.247 457.761 350.298 457.582 350.181C457.403 350.065 457.352 349.825 457.468 349.646C457.584 349.467 457.824 349.416 458.003 349.532Z" fill="white"/>
<path opacity="0.3" d="M287.331 273.669C287.51 273.785 287.561 274.025 287.445 274.204C287.328 274.383 287.089 274.434 286.91 274.318C286.731 274.202 286.68 273.962 286.796 273.783C286.912 273.603 287.152 273.552 287.331 273.669Z" fill="white"/>
<path d="M350.55 339.693C350.729 339.81 350.779 340.049 350.663 340.229C350.547 340.408 350.308 340.459 350.129 340.343C349.95 340.226 349.899 339.986 350.015 339.807C350.131 339.628 350.371 339.577 350.55 339.693Z" fill="white"/>
<path d="M400.065 372.805C400.244 372.921 400.295 373.161 400.179 373.34C400.063 373.519 399.823 373.57 399.644 373.454C399.465 373.337 399.414 373.098 399.531 372.918C399.647 372.739 399.886 372.688 400.065 372.805Z" fill="white"/>
<path d="M347.862 295.473C348.041 295.59 348.092 295.83 347.976 296.009C347.86 296.188 347.62 296.239 347.441 296.123C347.262 296.006 347.211 295.767 347.328 295.587C347.444 295.408 347.683 295.357 347.862 295.473Z" fill="white"/>
<path opacity="0.3" d="M325.159 280.718C325.338 280.834 325.389 281.074 325.273 281.253C325.156 281.432 324.917 281.483 324.738 281.367C324.559 281.251 324.508 281.011 324.624 280.832C324.741 280.652 324.98 280.601 325.159 280.718Z" fill="white"/>
<path opacity="0.11" d="M285.526 283.573C285.705 283.689 285.756 283.929 285.64 284.108C285.524 284.288 285.284 284.339 285.105 284.222C284.926 284.106 284.875 283.866 284.992 283.687C285.108 283.508 285.347 283.457 285.526 283.573Z" fill="white"/>
<path opacity="0.3" d="M361.44 335.691C361.619 335.808 361.67 336.047 361.554 336.227C361.438 336.406 361.198 336.457 361.019 336.341C360.84 336.224 360.789 335.985 360.906 335.805C361.022 335.626 361.261 335.575 361.44 335.691Z" fill="white"/>
<path opacity="0.3" d="M357.37 292.886C357.549 293.002 357.6 293.242 357.484 293.421C357.367 293.6 357.128 293.651 356.949 293.535C356.77 293.419 356.719 293.179 356.835 293C356.952 292.82 357.191 292.769 357.37 292.886Z" fill="white"/>
<path opacity="0.3" d="M320.237 264.132C320.416 264.248 320.467 264.488 320.351 264.667C320.235 264.846 319.995 264.897 319.816 264.781C319.637 264.665 319.586 264.425 319.703 264.246C319.819 264.066 320.058 264.015 320.237 264.132Z" fill="white"/>
<path opacity="0.3" d="M296.737 279.781C296.916 279.897 296.967 280.137 296.851 280.316C296.735 280.496 296.495 280.547 296.316 280.43C296.137 280.314 296.086 280.074 296.203 279.895C296.319 279.716 296.558 279.665 296.737 279.781Z" fill="white"/>
<path opacity="0.3" d="M497.807 411.87C497.986 411.986 498.037 412.226 497.921 412.405C497.805 412.585 497.566 412.636 497.387 412.519C497.208 412.403 497.157 412.163 497.273 411.984C497.389 411.805 497.628 411.754 497.807 411.87Z" fill="white"/>
<path opacity="0.11" d="M436.964 391.253C437.143 391.369 437.194 391.609 437.077 391.788C436.961 391.967 436.722 392.018 436.543 391.902C436.364 391.786 436.313 391.546 436.429 391.367C436.545 391.187 436.785 391.136 436.964 391.253Z" fill="white"/>
<path opacity="0.11" d="M498.096 392.215C498.275 392.331 498.326 392.571 498.21 392.75C498.094 392.929 497.855 392.98 497.676 392.864C497.497 392.748 497.446 392.508 497.562 392.329C497.678 392.149 497.917 392.098 498.096 392.215Z" fill="white"/>
<path opacity="0.3" d="M417.944 335.957C418.302 336.19 418.404 336.67 418.172 337.029C417.939 337.388 417.46 337.49 417.102 337.257C416.744 337.024 416.642 336.544 416.874 336.185C417.107 335.826 417.586 335.724 417.944 335.957Z" fill="white"/>
<path opacity="0.11" d="M430.772 358.139C431.13 358.371 431.232 358.851 431 359.21C430.767 359.569 430.288 359.671 429.93 359.438C429.572 359.205 429.47 358.726 429.702 358.367C429.935 358.008 430.414 357.906 430.772 358.139Z" fill="white"/>
<path d="M423.243 369.402C423.512 369.577 423.588 369.937 423.414 370.206C423.239 370.475 422.88 370.551 422.611 370.377C422.343 370.202 422.266 369.842 422.441 369.573C422.615 369.304 422.974 369.228 423.243 369.402Z" fill="white"/>
<path d="M422.962 320.751C423.23 320.925 423.307 321.285 423.132 321.554C422.958 321.823 422.599 321.9 422.33 321.725C422.062 321.551 421.985 321.191 422.159 320.922C422.334 320.653 422.693 320.576 422.962 320.751Z" fill="white"/>
<path d="M534.837 384.239C535.105 384.414 535.182 384.773 535.007 385.043C534.833 385.312 534.474 385.388 534.205 385.214C533.937 385.039 533.86 384.679 534.034 384.41C534.209 384.141 534.568 384.064 534.837 384.239Z" fill="white"/>
<path d="M320.798 252.953C321.066 253.128 321.143 253.487 320.968 253.756C320.794 254.026 320.435 254.102 320.166 253.928C319.897 253.753 319.821 253.393 319.995 253.124C320.17 252.855 320.529 252.778 320.798 252.953Z" fill="white"/>
<path d="M272.829 232.389C273.097 232.563 273.174 232.923 273 233.192C272.825 233.461 272.466 233.538 272.197 233.363C271.929 233.188 271.852 232.829 272.027 232.56C272.201 232.29 272.56 232.214 272.829 232.389Z" fill="white"/>
<path d="M258.899 241.799C259.168 241.973 259.244 242.333 259.07 242.602C258.896 242.871 258.536 242.948 258.268 242.773C257.999 242.599 257.923 242.239 258.097 241.97C258.271 241.701 258.63 241.624 258.899 241.799Z" fill="white"/>
<path d="M411.891 352.788C412.16 352.963 412.236 353.322 412.062 353.591C411.888 353.861 411.529 353.937 411.26 353.763C410.991 353.588 410.915 353.228 411.089 352.959C411.263 352.69 411.623 352.613 411.891 352.788Z" fill="white"/>
<path d="M371.04 292.072C371.308 292.247 371.385 292.607 371.21 292.876C371.036 293.145 370.677 293.221 370.408 293.047C370.14 292.872 370.063 292.512 370.238 292.243C370.412 291.974 370.771 291.897 371.04 292.072Z" fill="white"/>
<path d="M461.805 331.224C462.074 331.399 462.15 331.759 461.976 332.028C461.802 332.297 461.443 332.374 461.174 332.199C460.905 332.024 460.829 331.665 461.003 331.396C461.178 331.126 461.537 331.05 461.805 331.224Z" fill="white"/>
<path d="M533.423 409.176C533.691 409.35 533.768 409.71 533.593 409.979C533.419 410.248 533.06 410.325 532.791 410.15C532.522 409.976 532.446 409.616 532.62 409.347C532.795 409.078 533.154 409.001 533.423 409.176Z" fill="white"/>
<path d="M529.633 432.099C529.902 432.274 529.979 432.634 529.804 432.903C529.63 433.172 529.271 433.249 529.002 433.074C528.733 432.899 528.657 432.54 528.831 432.271C529.006 432.001 529.365 431.925 529.633 432.099Z" fill="white"/>
<path opacity="0.3" d="M450.202 386.47C450.56 386.703 450.662 387.182 450.43 387.541C450.197 387.9 449.718 388.002 449.36 387.769C449.001 387.537 448.899 387.057 449.132 386.698C449.365 386.339 449.844 386.237 450.202 386.47Z" fill="white"/>
<path d="M435.264 409.53C435.623 409.763 435.725 410.243 435.492 410.602C435.26 410.961 434.781 411.063 434.422 410.83C434.064 410.597 433.962 410.117 434.194 409.758C434.427 409.399 434.906 409.297 435.264 409.53Z" fill="white"/>
<path d="M471.54 390.18C471.808 390.354 471.885 390.714 471.71 390.983C471.536 391.252 471.177 391.329 470.908 391.154C470.64 390.979 470.563 390.62 470.738 390.351C470.912 390.081 471.271 390.005 471.54 390.18Z" fill="white"/>
<path opacity="0.3" d="M479.053 413.071C479.412 413.304 479.514 413.784 479.281 414.143C479.049 414.502 478.57 414.604 478.211 414.371C477.853 414.138 477.751 413.658 477.984 413.299C478.216 412.94 478.695 412.838 479.053 413.071Z" fill="white"/>
<path opacity="0.3" d="M526.1 410.877C526.459 411.11 526.561 411.59 526.328 411.948C526.095 412.307 525.616 412.41 525.258 412.177C524.9 411.944 524.798 411.464 525.03 411.105C525.263 410.746 525.742 410.644 526.1 410.877Z" fill="white"/>
<path opacity="0.3" d="M488.585 385.564C488.943 385.797 489.045 386.277 488.812 386.636C488.58 386.995 488.101 387.097 487.743 386.864C487.384 386.631 487.282 386.151 487.515 385.792C487.747 385.434 488.226 385.331 488.585 385.564Z" fill="white"/>
<path opacity="0.3" d="M306.022 259.046C306.38 259.279 306.482 259.759 306.25 260.117C306.017 260.476 305.538 260.579 305.18 260.346C304.822 260.113 304.72 259.633 304.952 259.274C305.185 258.915 305.664 258.813 306.022 259.046Z" fill="white"/>
<path opacity="0.3" d="M268.178 259.834C268.537 260.067 268.639 260.547 268.406 260.906C268.174 261.264 267.695 261.367 267.336 261.134C266.978 260.901 266.876 260.421 267.109 260.062C267.341 259.703 267.82 259.601 268.178 259.834Z" fill="white"/>
<path opacity="0.11" d="M506.499 411.979C506.857 412.212 506.959 412.692 506.726 413.051C506.494 413.41 506.015 413.512 505.657 413.279C505.298 413.046 505.196 412.566 505.429 412.208C505.661 411.849 506.14 411.746 506.499 411.979Z" fill="white"/>
<path opacity="0.3" d="M307.397 301.022C307.755 301.255 307.857 301.735 307.625 302.094C307.392 302.453 306.913 302.555 306.555 302.322C306.197 302.089 306.095 301.609 306.327 301.25C306.56 300.892 307.039 300.789 307.397 301.022Z" fill="white"/>
<path opacity="0.11" d="M294.436 301.827C294.795 302.06 294.897 302.54 294.664 302.899C294.431 303.258 293.952 303.36 293.594 303.127C293.236 302.894 293.134 302.414 293.366 302.055C293.599 301.696 294.078 301.594 294.436 301.827Z" fill="white"/>
<path opacity="0.3" d="M305.303 279.353C305.662 279.586 305.764 280.066 305.531 280.425C305.299 280.784 304.82 280.886 304.461 280.653C304.103 280.42 304.001 279.94 304.234 279.582C304.466 279.223 304.945 279.12 305.303 279.353Z" fill="white"/>
<path d="M325.368 292.852C325.637 293.027 325.713 293.387 325.539 293.656C325.364 293.925 325.005 294.002 324.736 293.827C324.468 293.652 324.391 293.293 324.566 293.023C324.74 292.754 325.099 292.678 325.368 292.852Z" fill="white"/>
</g>
</svg>
