<svg width="21" height="21" viewBox="0 0 21 21" fill="none" xmlns="http://www.w3.org/2000/svg">
<g clip-path="url(#clip0_161_19109)">
<path d="M17.4911 17.5412H14.5278V12.9004C14.5278 11.7937 14.508 10.3691 12.9865 10.3691C11.4431 10.3691 11.2069 11.5749 11.2069 12.8198V17.5409H8.24363V7.99747H11.0884V9.30169H11.1282C11.4129 8.81489 11.8243 8.41443 12.3186 8.14295C12.8129 7.87147 13.3716 7.73914 13.9351 7.76005C16.9386 7.76005 17.4924 9.73567 17.4924 12.3058L17.4911 17.5412ZM4.89988 6.69302C3.95012 6.69317 3.18004 5.92333 3.17988 4.97356C3.17973 4.0238 3.94949 3.25372 4.89926 3.25356C5.84902 3.25333 6.6191 4.02317 6.61926 4.97294C6.61934 5.42904 6.43824 5.86649 6.1158 6.18906C5.79336 6.51164 5.35598 6.69291 4.89988 6.69302ZM6.3816 17.5413H3.41512V7.99747H6.38152V17.5412L6.3816 17.5413ZM18.9685 0.501456H1.92605C1.12059 0.492393 0.460039 1.13763 0.450195 1.9431V19.0566C0.459727 19.8625 1.1202 20.5083 1.92598 20.4999H18.9685C19.776 20.5099 20.439 19.864 20.4502 19.0566V1.94177C20.4387 1.13474 19.7756 0.489581 18.9685 0.500127" fill="#0A66C2"/>
</g>
<defs>
<clipPath id="clip0_161_19109">
<rect width="20" height="20" fill="white" transform="translate(0.450195 0.5)"/>
</clipPath>
</defs>
</svg>
