<svg width="390" height="356" viewBox="0 0 390 356" fill="none" xmlns="http://www.w3.org/2000/svg">
<g filter="url(#filter0_d_405_58313)">
<g clip-path="url(#clip0_405_58313)">
<rect x="103.5" y="62" width="257" height="261" rx="12" fill="white"/>
<rect x="206.5" y="134" width="93" height="7" rx="2" fill="#F9E0CE"/>
<rect x="206.5" y="143" width="50" height="2" rx="1" fill="#F9E0CE"/>
<rect x="206.5" y="149" width="4" height="4" rx="2" fill="#EFF0F2"/>
<rect x="212.5" y="149" width="134" height="4" rx="2" fill="#EFF0F2"/>
<rect x="206.5" y="155" width="4" height="4" rx="2" fill="#EFF0F2"/>
<rect x="212.5" y="155" width="134" height="4" rx="2" fill="#EFF0F2"/>
<rect x="206.5" y="161" width="4" height="4" rx="2" fill="#EFF0F2"/>
<rect x="212.5" y="161" width="134" height="4" rx="2" fill="#EFF0F2"/>
<rect x="206.5" y="167" width="4" height="4" rx="2" fill="#EFF0F2"/>
<rect x="212.5" y="167" width="134" height="4" rx="2" fill="#EFF0F2"/>
<rect x="206.5" y="187" width="93" height="7" rx="2" fill="#F9E0CE"/>
<rect x="206.5" y="196" width="50" height="2" rx="1" fill="#F9E0CE"/>
<rect x="206.5" y="202" width="4" height="4" rx="2" fill="#EFF0F2"/>
<rect x="212.5" y="202" width="134" height="4" rx="2" fill="#EFF0F2"/>
<rect x="206.5" y="208" width="4" height="4" rx="2" fill="#EFF0F2"/>
<rect x="212.5" y="208" width="134" height="4" rx="2" fill="#EFF0F2"/>
<rect x="206.5" y="214" width="4" height="4" rx="2" fill="#EFF0F2"/>
<rect x="212.5" y="214" width="134" height="4" rx="2" fill="#EFF0F2"/>
<rect x="206.5" y="220" width="4" height="4" rx="2" fill="#EFF0F2"/>
<rect x="212.5" y="220" width="134" height="4" rx="2" fill="#EFF0F2"/>
<rect x="206.5" y="240" width="93" height="7" rx="2" fill="#F9E0CE"/>
<rect x="206.5" y="249" width="50" height="2" rx="1" fill="#F9E0CE"/>
<rect x="206.5" y="255" width="4" height="4" rx="2" fill="#EFF0F2"/>
<rect x="212.5" y="255" width="134" height="4" rx="2" fill="#EFF0F2"/>
<rect x="206.5" y="261" width="4" height="4" rx="2" fill="#EFF0F2"/>
<rect x="212.5" y="261" width="134" height="4" rx="2" fill="#EFF0F2"/>
<rect x="206.5" y="267" width="4" height="4" rx="2" fill="#EFF0F2"/>
<rect x="212.5" y="267" width="134" height="4" rx="2" fill="#EFF0F2"/>
<rect x="206.5" y="273" width="4" height="4" rx="2" fill="#EFF0F2"/>
<rect x="212.5" y="273" width="134" height="4" rx="2" fill="#EFF0F2"/>
<rect x="206.5" y="78" width="93" height="7" rx="2" fill="#F9E0CE"/>
<rect x="206.5" y="89" width="140" height="4" rx="2" fill="#EFF0F2"/>
<rect x="206.5" y="95" width="140" height="4" rx="2" fill="#EFF0F2"/>
<rect x="206.5" y="101" width="140" height="4" rx="2" fill="#EFF0F2"/>
<rect x="206.5" y="107" width="140" height="4" rx="2" fill="#EFF0F2"/>
<rect x="206.5" y="113" width="140" height="4" rx="2" fill="#EFF0F2"/>
<rect width="94" height="262" transform="translate(103.5 61)" fill="#FCEFE6"/>
<circle cx="148.5" cy="105" r="25" fill="#F9E0CE"/>
<rect x="110.5" y="140" width="75" height="7" rx="2" fill="#F9E0CE"/>
<rect x="115.5" y="150" width="66" height="3" rx="1.5" fill="#F9E0CE"/>
<rect x="109.5" y="221" width="66" height="3" rx="1.5" fill="#F9E0CE"/>
<rect x="109.5" y="285" width="78" height="3" rx="1.5" fill="#F9E0CE"/>
<rect x="109.5" y="291" width="78" height="3" rx="1.5" fill="#F9E0CE"/>
<rect x="109.5" y="297" width="78" height="3" rx="1.5" fill="#F9E0CE"/>
<circle cx="112" cy="172.5" r="2.5" fill="#F4C19C"/>
<rect x="117.5" y="170.5" width="70" height="4" rx="2" fill="#F9E0CE"/>
<circle cx="112" cy="182.5" r="2.5" fill="#F4C19C"/>
<rect x="117.5" y="180.5" width="70" height="4" rx="2" fill="#F9E0CE"/>
<circle cx="112" cy="192.5" r="2.5" fill="#F4C19C"/>
<rect x="117.5" y="190.5" width="70" height="4" rx="2" fill="#F9E0CE"/>
<circle cx="112" cy="202.5" r="2.5" fill="#F4C19C"/>
<rect x="117.5" y="200.5" width="70" height="4" rx="2" fill="#F9E0CE"/>
<circle cx="112" cy="232.5" r="2.5" fill="#F4C19C"/>
<rect x="117.5" y="230.5" width="70" height="4" rx="2" fill="#F9E0CE"/>
<circle cx="112" cy="242.5" r="2.5" fill="#F4C19C"/>
<rect x="117.5" y="240.5" width="70" height="4" rx="2" fill="#F9E0CE"/>
<circle cx="112" cy="252.5" r="2.5" fill="#F4C19C"/>
<rect x="117.5" y="250.5" width="70" height="4" rx="2" fill="#F9E0CE"/>
<circle cx="112" cy="262.5" r="2.5" fill="#F4C19C"/>
<rect x="117.5" y="260.5" width="70" height="4" rx="2" fill="#F9E0CE"/>
</g>
</g>
<g filter="url(#filter1_d_405_58313)">
<g clip-path="url(#clip1_405_58313)">
<rect x="21.5" y="17" width="257" height="261" rx="12" fill="white"/>
<rect x="124.5" y="89" width="93" height="7" rx="2" fill="#CEE1F6"/>
<rect x="124.5" y="98" width="50" height="2" rx="1" fill="#CEE1F6"/>
<rect x="124.5" y="104" width="4" height="4" rx="2" fill="#EFF0F2"/>
<rect x="130.5" y="104" width="134" height="4" rx="2" fill="#EFF0F2"/>
<rect x="124.5" y="110" width="4" height="4" rx="2" fill="#EFF0F2"/>
<rect x="130.5" y="110" width="134" height="4" rx="2" fill="#EFF0F2"/>
<rect x="124.5" y="116" width="4" height="4" rx="2" fill="#EFF0F2"/>
<rect x="130.5" y="116" width="134" height="4" rx="2" fill="#EFF0F2"/>
<rect x="124.5" y="122" width="4" height="4" rx="2" fill="#EFF0F2"/>
<rect x="130.5" y="122" width="134" height="4" rx="2" fill="#EFF0F2"/>
<rect x="124.5" y="142" width="93" height="7" rx="2" fill="#CEE1F6"/>
<rect x="124.5" y="151" width="50" height="2" rx="1" fill="#CEE1F6"/>
<rect x="124.5" y="157" width="4" height="4" rx="2" fill="#EFF0F2"/>
<rect x="130.5" y="157" width="134" height="4" rx="2" fill="#EFF0F2"/>
<rect x="124.5" y="163" width="4" height="4" rx="2" fill="#EFF0F2"/>
<rect x="130.5" y="163" width="134" height="4" rx="2" fill="#EFF0F2"/>
<rect x="124.5" y="169" width="4" height="4" rx="2" fill="#EFF0F2"/>
<rect x="130.5" y="169" width="134" height="4" rx="2" fill="#EFF0F2"/>
<rect x="124.5" y="175" width="4" height="4" rx="2" fill="#EFF0F2"/>
<rect x="130.5" y="175" width="134" height="4" rx="2" fill="#EFF0F2"/>
<rect x="124.5" y="195" width="93" height="7" rx="2" fill="#CEE1F6"/>
<rect x="124.5" y="204" width="50" height="2" rx="1" fill="#CEE1F6"/>
<rect x="124.5" y="210" width="4" height="4" rx="2" fill="#EFF0F2"/>
<rect x="130.5" y="210" width="134" height="4" rx="2" fill="#EFF0F2"/>
<rect x="124.5" y="216" width="4" height="4" rx="2" fill="#EFF0F2"/>
<rect x="130.5" y="216" width="134" height="4" rx="2" fill="#EFF0F2"/>
<rect x="124.5" y="222" width="4" height="4" rx="2" fill="#EFF0F2"/>
<rect x="130.5" y="222" width="134" height="4" rx="2" fill="#EFF0F2"/>
<rect x="124.5" y="228" width="4" height="4" rx="2" fill="#EFF0F2"/>
<rect x="130.5" y="228" width="134" height="4" rx="2" fill="#EFF0F2"/>
<rect x="124.5" y="33" width="93" height="7" rx="2" fill="#CEE1F6"/>
<rect x="124.5" y="44" width="140" height="4" rx="2" fill="#EFF0F2"/>
<rect x="124.5" y="50" width="140" height="4" rx="2" fill="#EFF0F2"/>
<rect x="124.5" y="56" width="140" height="4" rx="2" fill="#EFF0F2"/>
<rect x="124.5" y="62" width="140" height="4" rx="2" fill="#EFF0F2"/>
<rect x="124.5" y="68" width="140" height="4" rx="2" fill="#EFF0F2"/>
<rect width="94" height="262" transform="translate(21.5 16)" fill="#E6F0FB"/>
<circle cx="66.5" cy="60" r="25" fill="#CEE1F6"/>
<rect x="28.5" y="95" width="75" height="7" rx="2" fill="#CEE1F6"/>
<rect x="33.5" y="105" width="66" height="3" rx="1.5" fill="#CEE1F6"/>
<rect x="27.5" y="176" width="66" height="3" rx="1.5" fill="#CEE1F6"/>
<rect x="27.5" y="240" width="78" height="3" rx="1.5" fill="#CEE1F6"/>
<rect x="27.5" y="246" width="78" height="3" rx="1.5" fill="#CEE1F6"/>
<rect x="27.5" y="252" width="78" height="3" rx="1.5" fill="#CEE1F6"/>
<circle cx="30" cy="127.5" r="2.5" fill="#9DC2ED"/>
<rect x="35.5" y="125.5" width="70" height="4" rx="2" fill="#CEE1F6"/>
<circle cx="30" cy="137.5" r="2.5" fill="#9DC2ED"/>
<rect x="35.5" y="135.5" width="70" height="4" rx="2" fill="#CEE1F6"/>
<circle cx="30" cy="147.5" r="2.5" fill="#9DC2ED"/>
<rect x="35.5" y="145.5" width="70" height="4" rx="2" fill="#CEE1F6"/>
<circle cx="30" cy="157.5" r="2.5" fill="#9DC2ED"/>
<rect x="35.5" y="155.5" width="70" height="4" rx="2" fill="#CEE1F6"/>
<circle cx="30" cy="187.5" r="2.5" fill="#9DC2ED"/>
<rect x="35.5" y="185.5" width="70" height="4" rx="2" fill="#CEE1F6"/>
<circle cx="30" cy="197.5" r="2.5" fill="#9DC2ED"/>
<rect x="35.5" y="195.5" width="70" height="4" rx="2" fill="#CEE1F6"/>
<circle cx="30" cy="207.5" r="2.5" fill="#9DC2ED"/>
<rect x="35.5" y="205.5" width="70" height="4" rx="2" fill="#CEE1F6"/>
<circle cx="30" cy="217.5" r="2.5" fill="#9DC2ED"/>
<rect x="35.5" y="215.5" width="70" height="4" rx="2" fill="#CEE1F6"/>
</g>
</g>
<defs>
<filter id="filter0_d_405_58313" x="82.5" y="45" width="307" height="311" filterUnits="userSpaceOnUse" color-interpolation-filters="sRGB">
<feFlood flood-opacity="0" result="BackgroundImageFix"/>
<feColorMatrix in="SourceAlpha" type="matrix" values="0 0 0 0 0 0 0 0 0 0 0 0 0 0 0 0 0 0 127 0" result="hardAlpha"/>
<feOffset dx="4" dy="8"/>
<feGaussianBlur stdDeviation="12.5"/>
<feComposite in2="hardAlpha" operator="out"/>
<feColorMatrix type="matrix" values="0 0 0 0 0.247059 0 0 0 0 0.247059 0 0 0 0 0.235294 0 0 0 0.12 0"/>
<feBlend mode="normal" in2="BackgroundImageFix" result="effect1_dropShadow_405_58313"/>
<feBlend mode="normal" in="SourceGraphic" in2="effect1_dropShadow_405_58313" result="shape"/>
</filter>
<filter id="filter1_d_405_58313" x="0.5" y="0" width="307" height="311" filterUnits="userSpaceOnUse" color-interpolation-filters="sRGB">
<feFlood flood-opacity="0" result="BackgroundImageFix"/>
<feColorMatrix in="SourceAlpha" type="matrix" values="0 0 0 0 0 0 0 0 0 0 0 0 0 0 0 0 0 0 127 0" result="hardAlpha"/>
<feOffset dx="4" dy="8"/>
<feGaussianBlur stdDeviation="12.5"/>
<feComposite in2="hardAlpha" operator="out"/>
<feColorMatrix type="matrix" values="0 0 0 0 0.247059 0 0 0 0 0.247059 0 0 0 0 0.235294 0 0 0 0.12 0"/>
<feBlend mode="normal" in2="BackgroundImageFix" result="effect1_dropShadow_405_58313"/>
<feBlend mode="normal" in="SourceGraphic" in2="effect1_dropShadow_405_58313" result="shape"/>
</filter>
<clipPath id="clip0_405_58313">
<rect x="103.5" y="62" width="257" height="261" rx="12" fill="white"/>
</clipPath>
<clipPath id="clip1_405_58313">
<rect x="21.5" y="17" width="257" height="261" rx="12" fill="white"/>
</clipPath>
</defs>
</svg>
