<svg width="42" height="47" viewBox="0 0 42 47" fill="none" xmlns="http://www.w3.org/2000/svg">
<path fill-rule="evenodd" clip-rule="evenodd" d="M22.3041 0.00482771C29.9489 -0.223803 34.8335 7.71316 38.7613 14.2428C41.9404 19.5277 42.7475 25.6261 41.3215 31.6197C39.9124 37.5427 36.8094 43.2434 31.255 45.794C25.7909 48.3031 19.6934 46.4862 14.1817 44.0825C8.32148 41.5269 1.83278 38.4789 0.305135 32.2968C-1.24094 26.0401 3.40915 20.5247 7.04248 15.1914C11.2896 8.95704 14.7379 0.231109 22.3041 0.00482771Z" fill="#FCEAE6"/>
<path d="M28.9836 22.5046L26.5131 20.0316C24.8241 18.3411 23.9797 17.4958 23.0727 17.6959C22.1658 17.896 21.7546 19.0183 20.9321 21.2629L20.3755 22.7821C20.1563 23.3805 20.0466 23.6797 19.8494 23.9111C19.7609 24.0149 19.6602 24.1077 19.5495 24.1874C19.3028 24.3651 18.9958 24.4497 18.3819 24.6189C16.9983 25.0003 16.3065 25.1911 16.0458 25.6437C15.9331 25.8394 15.8744 26.0616 15.8758 26.2875C15.8791 26.8099 16.3865 27.3178 17.4014 28.3337L18.5802 29.5139L14.8503 33.2473C14.602 33.4958 14.602 33.8988 14.8503 34.1473C15.0985 34.3958 15.5011 34.3958 15.7494 34.1473L19.4794 30.4137L20.7011 31.6366C21.7223 32.6588 22.233 33.17 22.7586 33.1707C22.9801 33.1711 23.1977 33.1135 23.3901 33.0037C23.8467 32.7432 24.0385 32.0462 24.422 30.6524C24.5906 30.0397 24.6749 29.7332 24.8519 29.4866C24.9294 29.3787 25.0192 29.2802 25.1197 29.1932C25.3491 28.9945 25.6464 28.8828 26.2409 28.6595L27.7776 28.0821C29.9974 27.2481 31.1073 26.8311 31.303 25.9266C31.4986 25.022 30.6602 24.1829 28.9836 22.5046Z" fill="#E98239"/>
</svg>
