<svg width="22" height="22" viewBox="0 0 22 22" fill="none" xmlns="http://www.w3.org/2000/svg">
<path fill-rule="evenodd" clip-rule="evenodd" d="M10.6064 6.51944L7.65128 4.77602C7.57452 4.73313 7.5072 4.67519 7.45335 4.60568C7.3995 4.53617 7.36022 4.4565 7.33787 4.37146C7.31553 4.28641 7.31056 4.19774 7.32328 4.11073C7.336 4.02372 7.36614 3.94018 7.4119 3.86509C7.45765 3.79 7.51809 3.72491 7.58958 3.67372C7.66108 3.62253 7.74216 3.58629 7.82799 3.56717C7.91382 3.54804 8.00262 3.54642 8.08909 3.56242C8.17555 3.57841 8.2579 3.61168 8.33121 3.66023L11.2602 5.40365L10.6064 6.51944Z" fill="white"/>
<path fill-rule="evenodd" clip-rule="evenodd" d="M10.8299 9.52681L4.87608 6.08355C4.80168 6.04062 4.73645 5.98346 4.68413 5.91533C4.63182 5.84719 4.59343 5.76942 4.57117 5.68645C4.52622 5.51888 4.54967 5.34032 4.63636 5.19005C4.72306 5.03977 4.8659 4.93009 5.03347 4.88514C5.20103 4.84018 5.37959 4.86363 5.52987 4.95033L10.8299 8.01875V9.52681Z" fill="white"/>
<path fill-rule="evenodd" clip-rule="evenodd" d="M17.876 5.1856C17.7874 5.04342 17.6482 4.94009 17.4864 4.89642C17.3247 4.85275 17.1524 4.87198 17.0043 4.95024L11.9048 7.86176V6.5106L14.8599 4.76718C15.0024 4.67874 15.1049 4.53825 15.1456 4.37551C15.1863 4.21277 15.1619 4.04059 15.0778 3.89547C14.9879 3.75462 14.8474 3.65356 14.6853 3.61303C14.5232 3.5725 14.3517 3.59558 14.2061 3.67755L10.9459 5.57787C10.8425 5.63856 10.7568 5.72515 10.6972 5.82911C10.6376 5.93307 10.6061 6.05079 10.6059 6.17064V18.8453C10.5953 18.9369 10.6042 19.0297 10.6319 19.1177C10.6597 19.2056 10.7058 19.2866 10.7671 19.3555C10.8285 19.4244 10.9037 19.4795 10.9878 19.5172C11.072 19.555 11.1631 19.5745 11.2553 19.5745C11.3476 19.5745 11.4387 19.555 11.5229 19.5172C11.607 19.4795 11.6822 19.4244 11.7436 19.3555C11.8049 19.2866 11.851 19.2056 11.8787 19.1177C11.9065 19.0297 11.9154 18.9369 11.9048 18.8453V9.37853L17.6319 6.08347C17.7824 5.99591 17.8924 5.85262 17.9381 5.68459C17.9838 5.51657 17.9615 5.33731 17.876 5.1856Z" fill="white"/>
<path d="M11.2576 3.96533C11.662 3.96533 11.9899 3.63749 11.9899 3.23309C11.9899 2.82869 11.662 2.50085 11.2576 2.50085C10.8532 2.50085 10.5254 2.82869 10.5254 3.23309C10.5254 3.63749 10.8532 3.96533 11.2576 3.96533Z" fill="white"/>
<path d="M9.05542 9.97134C9.1556 10.0261 9.23921 10.1067 9.29749 10.2049C9.35577 10.3031 9.38657 10.4151 9.38667 10.5292V14.0858C9.38721 14.2013 9.35676 14.3147 9.2985 14.4144C9.24023 14.5141 9.15629 14.5963 9.05542 14.6524C8.9567 14.7075 8.84593 14.7375 8.73289 14.7396C8.61722 14.7365 8.50385 14.7067 8.40164 14.6524L4.63585 12.4819C4.48558 12.3952 4.3759 12.2523 4.33094 12.0848C4.28598 11.9172 4.30943 11.7386 4.39613 11.5884C4.48283 11.4381 4.62567 11.3284 4.79323 11.2835C4.9608 11.2385 5.13936 11.2619 5.28963 11.3486L8.07911 12.9526V10.9128L6.81513 10.1893C6.67132 10.1021 6.56663 9.96291 6.52279 9.80057C6.47896 9.63823 6.49937 9.46525 6.57976 9.31756C6.66537 9.17207 6.8046 9.06594 6.96758 9.02194C7.13055 8.97793 7.30427 8.99957 7.45147 9.0822L9.05542 9.97134Z" fill="white"/>
<path d="M5.37286 9.34362C5.77727 9.34362 6.1051 9.01579 6.1051 8.61139C6.1051 8.20698 5.77727 7.87915 5.37286 7.87915C4.96846 7.87915 4.64062 8.20698 4.64062 8.61139C4.64062 9.01579 4.96846 9.34362 5.37286 9.34362Z" fill="white"/>
<path d="M15.0329 9.0562C15.1801 8.97357 15.3538 8.95193 15.5168 8.99593C15.6797 9.03994 15.819 9.14607 15.9046 9.29156C15.985 9.43925 16.0054 9.61223 15.9615 9.77457C15.9177 9.93691 15.813 10.0761 15.6692 10.1633L14.4052 10.8868V12.9266L17.1947 11.3226C17.2691 11.2797 17.3512 11.2519 17.4364 11.2407C17.5216 11.2295 17.6081 11.2352 17.6911 11.2575C17.7741 11.2797 17.8518 11.3181 17.92 11.3704C17.9881 11.4227 18.0453 11.488 18.0882 11.5624C18.1311 11.6368 18.159 11.7189 18.1702 11.8041C18.1814 11.8893 18.1757 11.9758 18.1534 12.0588C18.1311 12.1417 18.0928 12.2195 18.0404 12.2876C17.9881 12.3558 17.9229 12.4129 17.8485 12.4559L14.0827 14.6264C13.9805 14.6807 13.8671 14.7105 13.7514 14.7136C13.6384 14.7115 13.5276 14.6815 13.4289 14.6264C13.328 14.5703 13.2441 14.4881 13.1858 14.3884C13.1276 14.2887 13.0971 14.1753 13.0977 14.0598V10.5294C13.0978 10.4152 13.1286 10.3032 13.1868 10.2051C13.2451 10.1069 13.3287 10.0262 13.4289 9.97149L15.0329 9.0562Z" fill="white"/>
<path d="M17.1248 9.34362C17.5292 9.34362 17.8571 9.01579 17.8571 8.61139C17.8571 8.20698 17.5292 7.87915 17.1248 7.87915C16.7204 7.87915 16.3926 8.20698 16.3926 8.61139C16.3926 9.01579 16.7204 9.34362 17.1248 9.34362Z" fill="white"/>
</svg>
