<svg width="16" height="17" viewBox="0 0 16 17" fill="none" xmlns="http://www.w3.org/2000/svg">
<path d="M5.33387 15.0075H10.6672C13.3472 15.0075 13.8272 13.9342 13.9672 12.6275L14.4672 7.29415C14.6472 5.66749 14.1805 4.34082 11.3339 4.34082H4.6672C1.82054 4.34082 1.35387 5.66749 1.53387 7.29415L2.03387 12.6275C2.17387 13.9342 2.65387 15.0075 5.33387 15.0075Z" stroke="#717A84" stroke-width="1.2" stroke-miterlimit="10" stroke-linecap="round" stroke-linejoin="round"/>
<path d="M5.33398 4.34049V3.80716C5.33398 2.62716 5.33398 1.67383 7.46732 1.67383H8.53398C10.6673 1.67383 10.6673 2.62716 10.6673 3.80716V4.34049" stroke="#717A84" stroke-width="1.2" stroke-miterlimit="10" stroke-linecap="round" stroke-linejoin="round"/>
<path d="M9.33268 9.00749V9.67415C9.33268 9.68082 9.33268 9.68082 9.33268 9.68749C9.33268 10.4142 9.32602 11.0075 7.99935 11.0075C6.67935 11.0075 6.66602 10.4208 6.66602 9.69415V9.00749C6.66602 8.34082 6.66602 8.34082 7.33268 8.34082H8.66602C9.33268 8.34082 9.33268 8.34082 9.33268 9.00749Z" stroke="#717A84" stroke-width="1.2" stroke-miterlimit="10" stroke-linecap="round" stroke-linejoin="round"/>
<path d="M14.434 7.67383C12.894 8.79383 11.134 9.4605 9.33398 9.68716" stroke="#717A84" stroke-width="1.5" stroke-miterlimit="10" stroke-linecap="round" stroke-linejoin="round"/>
<path d="M1.74609 7.85449C3.24609 8.88116 4.93943 9.50116 6.66609 9.69449" stroke="#717A84" stroke-width="1.5" stroke-miterlimit="10" stroke-linecap="round" stroke-linejoin="round"/>
</svg>
