<svg width="16" height="17" viewBox="0 0 16 17" fill="none" xmlns="http://www.w3.org/2000/svg">
<path d="M5.33387 15.0079H10.6672C13.3472 15.0079 13.8272 13.9345 13.9672 12.6279L14.4672 7.29452C14.6472 5.66785 14.1805 4.34119 11.3339 4.34119H4.6672C1.82054 4.34119 1.35387 5.66785 1.53387 7.29452L2.03387 12.6279C2.17387 13.9345 2.65387 15.0079 5.33387 15.0079Z" stroke="#717A84" stroke-width="1.2" stroke-miterlimit="10" stroke-linecap="round" stroke-linejoin="round"/>
<path d="M5.33398 4.34123V3.80789C5.33398 2.62789 5.33398 1.67456 7.46732 1.67456H8.53398C10.6673 1.67456 10.6673 2.62789 10.6673 3.80789V4.34123" stroke="#717A84" stroke-width="1.2" stroke-miterlimit="10" stroke-linecap="round" stroke-linejoin="round"/>
<path d="M9.33268 9.00785V9.67452C9.33268 9.68119 9.33268 9.68119 9.33268 9.68785C9.33268 10.4145 9.32602 11.0079 7.99935 11.0079C6.67935 11.0079 6.66602 10.4212 6.66602 9.69452V9.00785C6.66602 8.34119 6.66602 8.34119 7.33268 8.34119H8.66602C9.33268 8.34119 9.33268 8.34119 9.33268 9.00785Z" stroke="#717A84" stroke-width="1.2" stroke-miterlimit="10" stroke-linecap="round" stroke-linejoin="round"/>
<path d="M14.434 7.67456C12.894 8.79456 11.134 9.46123 9.33398 9.68789" stroke="#717A84" stroke-width="1.5" stroke-miterlimit="10" stroke-linecap="round" stroke-linejoin="round"/>
<path d="M1.74609 7.85449C3.24609 8.88116 4.93943 9.50116 6.66609 9.69449" stroke="#717A84" stroke-width="1.5" stroke-miterlimit="10" stroke-linecap="round" stroke-linejoin="round"/>
</svg>
