<svg width="16" height="17" viewBox="0 0 16 17" fill="none" xmlns="http://www.w3.org/2000/svg">
<path d="M14.6473 12.5612C14.6473 12.8012 14.594 13.0479 14.4807 13.2879C14.3673 13.5279 14.2207 13.7546 14.0273 13.9679C13.7007 14.3279 13.3407 14.5879 12.934 14.7546C12.534 14.9212 12.1007 15.0079 11.634 15.0079C10.954 15.0079 10.2273 14.8479 9.46065 14.5212C8.69398 14.1946 7.92732 13.7546 7.16732 13.2012C6.40065 12.6412 5.67398 12.0212 4.98065 11.3346C4.29398 10.6412 3.67398 9.91456 3.12065 9.15456C2.57398 8.39456 2.13398 7.63456 1.81398 6.88123C1.49398 6.12123 1.33398 5.39456 1.33398 4.70123C1.33398 4.24789 1.41398 3.81456 1.57398 3.41456C1.73398 3.00789 1.98732 2.63456 2.34065 2.30123C2.76732 1.88123 3.23398 1.67456 3.72732 1.67456C3.91398 1.67456 4.10065 1.71456 4.26732 1.79456C4.44065 1.87456 4.59398 1.99456 4.71398 2.16789L6.26065 4.34789C6.38065 4.51456 6.46732 4.66789 6.52732 4.81456C6.58732 4.95456 6.62065 5.09456 6.62065 5.22123C6.62065 5.38123 6.57398 5.54123 6.48065 5.69456C6.39398 5.84789 6.26732 6.00789 6.10732 6.16789L5.60065 6.69456C5.52732 6.76789 5.49398 6.85456 5.49398 6.96123C5.49398 7.01456 5.50065 7.06123 5.51398 7.11456C5.53398 7.16789 5.55398 7.20789 5.56732 7.24789C5.68732 7.46789 5.89398 7.75456 6.18732 8.10123C6.48732 8.44789 6.80732 8.80123 7.15398 9.15456C7.51398 9.50789 7.86065 9.83456 8.21398 10.1346C8.56065 10.4279 8.84732 10.6279 9.07398 10.7479C9.10732 10.7612 9.14732 10.7812 9.19398 10.8012C9.24732 10.8212 9.30065 10.8279 9.36065 10.8279C9.47398 10.8279 9.56065 10.7879 9.63398 10.7146L10.1407 10.2146C10.3073 10.0479 10.4673 9.92123 10.6207 9.84123C10.774 9.74789 10.9273 9.70123 11.094 9.70123C11.2207 9.70123 11.354 9.72789 11.5007 9.78789C11.6473 9.84789 11.8007 9.93456 11.9673 10.0479L14.174 11.6146C14.3473 11.7346 14.4673 11.8746 14.5407 12.0412C14.6073 12.2079 14.6473 12.3746 14.6473 12.5612Z" stroke="#717A84" stroke-width="1.2" stroke-miterlimit="10"/>
</svg>
