<svg width="16" height="16" viewBox="0 0 16 16" fill="none" xmlns="http://www.w3.org/2000/svg">
<path d="M11.1328 9.13585V11.0359C11.1328 13.5692 10.1195 14.5825 7.58615 14.5825H5.17948C2.64615 14.5825 1.63281 13.5692 1.63281 11.0359V8.62919C1.63281 6.09585 2.64615 5.08252 5.17948 5.08252H7.07948" fill="white"/>
<path d="M11.1328 9.13585V11.0359C11.1328 13.5692 10.1195 14.5825 7.58615 14.5825H5.17948C2.64615 14.5825 1.63281 13.5692 1.63281 11.0359V8.62919C1.63281 6.09585 2.64615 5.08252 5.17948 5.08252H7.07948" stroke="#515D68" stroke-width="0.95" stroke-linecap="round" stroke-linejoin="round"/>
<path d="M11.1324 9.13585H9.10577C7.58577 9.13585 7.0791 8.62919 7.0791 7.10919V5.08252L11.1324 9.13585Z" fill="white" stroke="#515D68" stroke-width="0.95" stroke-linecap="round" stroke-linejoin="round"/>
<path d="M7.71289 1.91602H10.2462" stroke="#515D68" stroke-width="0.95" stroke-linecap="round" stroke-linejoin="round"/>
<path d="M4.7998 3.81602C4.7998 2.76468 5.64847 1.91602 6.6998 1.91602H8.35914" fill="white"/>
<path d="M4.7998 3.81602C4.7998 2.76468 5.64847 1.91602 6.6998 1.91602H8.35914" stroke="#515D68" stroke-width="0.95" stroke-linecap="round" stroke-linejoin="round"/>
<path d="M14.3002 5.71631V9.63664C14.3002 10.6183 13.5022 11.4163 12.5205 11.4163" fill="white"/>
<path d="M14.3002 5.71631V9.63664C14.3002 10.6183 13.5022 11.4163 12.5205 11.4163" stroke="#515D68" stroke-width="0.95" stroke-linecap="round" stroke-linejoin="round"/>
<path d="M14.3 5.71602H12.4C10.975 5.71602 10.5 5.24102 10.5 3.81602V1.91602L14.3 5.71602Z" fill="white" stroke="#515D68" stroke-width="0.95" stroke-linecap="round" stroke-linejoin="round"/>
</svg>
