<svg width="14" height="14" viewBox="0 0 14 14" fill="none" xmlns="http://www.w3.org/2000/svg">
<path d="M9.74154 11.0717H4.25821C4.01321 11.0717 3.73904 10.8792 3.65737 10.6459L1.24237 3.89088C0.898205 2.92254 1.30071 2.62504 2.12904 3.22004L4.40404 4.84754C4.78321 5.11004 5.21487 4.97588 5.37821 4.55004L6.40487 1.81421C6.73154 0.939209 7.27404 0.939209 7.60071 1.81421L8.62737 4.55004C8.79071 4.97588 9.22237 5.11004 9.59571 4.84754L11.7307 3.32504C12.6407 2.67171 13.0782 3.00421 12.7049 4.06004L10.3482 10.6575C10.2607 10.8792 9.98654 11.0717 9.74154 11.0717Z" stroke="#717A84" stroke-width="1.2" stroke-linecap="round" stroke-linejoin="round"/>
<path d="M3.79102 12.8334H10.2077" stroke="#717A84" stroke-width="1.2" stroke-linecap="round" stroke-linejoin="round"/>
<path d="M5.54102 8.16663H8.45768" stroke="#717A84" stroke-width="1.2" stroke-linecap="round" stroke-linejoin="round"/>
</svg>
