<svg width="16" height="16" viewBox="0 0 16 16" fill="none" xmlns="http://www.w3.org/2000/svg">
<path d="M9.94949 3.0951L9.94958 3.09526L14.2161 10.7751C14.7187 11.6808 14.7425 12.4972 14.3867 13.1049C14.0314 13.7115 13.3107 14.0867 12.2676 14.0867H3.73429C2.69125 14.0867 1.97048 13.7115 1.61527 13.1049C1.25964 12.4976 1.28294 11.6879 1.78596 10.7747C1.78606 10.7746 1.78615 10.7744 1.78624 10.7742L6.05235 3.09526L6.05244 3.0951C6.59068 2.12501 7.29074 1.66671 8.00096 1.66671C8.71118 1.66671 9.41124 2.12501 9.94949 3.0951ZM8.68253 12.067L8.70047 12.0526L8.71628 12.036C8.89095 11.8516 9.00096 11.5976 9.00096 11.3334C9.00096 11.0691 8.89095 10.8152 8.71628 10.6308L8.70047 10.6141L8.68253 10.5998L8.63253 10.5598L8.58253 10.5198L8.57123 10.5107L8.5592 10.5027C8.50442 10.4662 8.44547 10.435 8.38234 10.4118C8.32387 10.3846 8.26149 10.3643 8.19184 10.3527C8.06468 10.3238 7.92804 10.3255 7.80229 10.3531C7.73811 10.3648 7.67707 10.385 7.61954 10.4118C7.55643 10.435 7.49749 10.4662 7.44273 10.5027L7.43069 10.5107L7.4194 10.5198L7.36939 10.5598L7.3194 10.5998L7.30145 10.6141L7.28564 10.6308C7.11097 10.8152 7.00096 11.0691 7.00096 11.3334C7.00096 11.5976 7.11097 11.8516 7.28564 12.036L7.30145 12.0526L7.3194 12.067L7.36939 12.107L7.4194 12.147L7.43069 12.156L7.44273 12.1641C7.49749 12.2006 7.55643 12.2317 7.61954 12.255C7.6802 12.2832 7.74478 12.3042 7.81283 12.3155L7.81281 12.3156L7.82049 12.3167L7.8279 12.3178C7.86889 12.3236 7.9365 12.3334 8.00096 12.3334C8.06902 12.3334 8.13749 12.3229 8.17903 12.3161C8.25388 12.3049 8.32031 12.2838 8.38235 12.255C8.44547 12.2317 8.50442 12.2006 8.5592 12.1641L8.57123 12.156L8.58253 12.147L8.63253 12.107L8.68253 12.067ZM8.00096 5.16671C7.54353 5.16671 7.16763 5.54261 7.16763 6.00004V9.33337C7.16763 9.7908 7.54353 10.1667 8.00096 10.1667C8.45839 10.1667 8.83429 9.7908 8.83429 9.33337V6.00004C8.83429 5.54261 8.45839 5.16671 8.00096 5.16671Z" fill="#E36308" stroke="#E36308" stroke-width="0.666667"/>
</svg>
