<svg width="25" height="24" viewBox="0 0 25 24" fill="none" xmlns="http://www.w3.org/2000/svg">
<path d="M11.25 2H9.25C4.25 2 2.25 4 2.25 9V15C2.25 20 4.25 22 9.25 22H15.25C20.25 22 22.25 20 22.25 15V13" stroke="#292D32" stroke-width="1.5" stroke-linecap="round" stroke-linejoin="round"/>
<path d="M16.2899 3.01976L8.40988 10.8998C8.10988 11.1998 7.80988 11.7898 7.74988 12.2198L7.31988 15.2298C7.15988 16.3198 7.92988 17.0798 9.01988 16.9298L12.0299 16.4998C12.4499 16.4398 13.0399 16.1398 13.3499 15.8398L21.2299 7.95976C22.5899 6.59976 23.2299 5.01976 21.2299 3.01976C19.2299 1.01976 17.6499 1.65976 16.2899 3.01976Z" stroke="#292D32" stroke-width="1.5" stroke-miterlimit="10" stroke-linecap="round" stroke-linejoin="round"/>
<path d="M15.1602 4.1499C15.8302 6.5399 17.7002 8.4099 20.1002 9.0899" stroke="#292D32" stroke-width="1.5" stroke-miterlimit="10" stroke-linecap="round" stroke-linejoin="round"/>
</svg>
