<svg width="192" height="153" viewBox="0 0 192 153" fill="none" xmlns="http://www.w3.org/2000/svg">
<path fill-rule="evenodd" clip-rule="evenodd" d="M48.5689 102.51H118.184C118.578 102.51 118.962 102.467 119.331 102.387C119.701 102.467 120.085 102.51 120.479 102.51H160.259C163.216 102.51 165.614 100.112 165.614 97.155C165.614 94.1975 163.216 91.8 160.259 91.8H155.669C152.711 91.8 150.314 89.4024 150.314 86.445C150.314 83.4875 152.711 81.09 155.669 81.09H170.204C173.161 81.09 175.559 78.6924 175.559 75.735C175.559 72.7775 173.161 70.38 170.204 70.38H153.374C156.331 70.38 158.729 67.9824 158.729 65.025C158.729 62.0675 156.331 59.67 153.374 59.67H104.414C107.371 59.67 109.769 57.2724 109.769 54.315C109.769 51.3575 107.371 48.96 104.414 48.96H60.8089C57.8514 48.96 55.4539 51.3575 55.4539 54.315C55.4539 57.2724 57.8514 59.67 60.8089 59.67H30.2089C27.2514 59.67 24.8539 62.0675 24.8539 65.025C24.8539 67.9824 27.2514 70.38 30.2089 70.38H49.3339C52.2914 70.38 54.6889 72.7775 54.6889 75.735C54.6889 78.6924 52.2914 81.09 49.3339 81.09H18.7339C15.7764 81.09 13.3789 83.4875 13.3789 86.445C13.3789 89.4024 15.7764 91.8 18.7339 91.8H48.5689C45.6114 91.8 43.2139 94.1975 43.2139 97.155C43.2139 100.112 45.6114 102.51 48.5689 102.51ZM173.264 102.51C176.221 102.51 178.619 100.112 178.619 97.155C178.619 94.1975 176.221 91.8 173.264 91.8C170.306 91.8 167.909 94.1975 167.909 97.155C167.909 100.112 170.306 102.51 173.264 102.51Z" fill="#E6F0FB"/>
<path fill-rule="evenodd" clip-rule="evenodd" d="M70.7538 107.1C61.4589 107.1 53.9238 99.7362 53.9238 90.6525C53.9238 81.5688 61.4589 74.205 70.7538 74.205C71.1491 74.205 71.5412 74.2183 71.9296 74.2445C71.6597 72.7421 71.5188 71.195 71.5188 69.615C71.5188 55.2501 83.1639 43.605 97.5288 43.605C108.997 43.605 118.732 51.027 122.191 61.3296C123.011 61.2439 123.843 61.2 124.686 61.2C137.573 61.2 148.019 71.475 148.019 84.15C148.019 96.1915 138.59 106.126 126.599 107.083V107.1H83.3823M79.9307 107.1H74.6027Z" fill="white"/>
<path d="M70.7538 108.056C71.282 108.056 71.7101 107.628 71.7101 107.1C71.7101 106.572 71.282 106.144 70.7538 106.144V108.056ZM71.9296 74.2445L71.8653 75.1986L73.0874 75.281L72.8708 74.0754L71.9296 74.2445ZM122.191 61.3296L121.285 61.6341L121.529 62.3604L122.291 62.2807L122.191 61.3296ZM126.599 107.083L126.523 106.13L125.643 106.2V107.083H126.599ZM126.599 107.1V108.056H127.555V107.1H126.599ZM83.3823 106.144C82.8542 106.144 82.4261 106.572 82.4261 107.1C82.4261 107.628 82.8542 108.056 83.3823 108.056V106.144ZM79.9307 108.056C80.4588 108.056 80.8869 107.628 80.8869 107.1C80.8869 106.572 80.4588 106.144 79.9307 106.144V108.056ZM74.6027 106.144C74.0746 106.144 73.6465 106.572 73.6465 107.1C73.6465 107.628 74.0746 108.056 74.6027 108.056V106.144ZM70.7538 106.144C61.9662 106.144 54.8801 99.1875 54.8801 90.6525H52.9676C52.9676 100.285 60.9516 108.056 70.7538 108.056V106.144ZM54.8801 90.6525C54.8801 82.1175 61.9662 75.1612 70.7538 75.1612V73.2487C60.9516 73.2487 52.9676 81.02 52.9676 90.6525H54.8801ZM70.7538 75.1612C71.1276 75.1612 71.4982 75.1738 71.8653 75.1986L71.994 73.2904C71.5841 73.2628 71.1706 73.2487 70.7538 73.2487V75.1612ZM72.8708 74.0754C72.6109 72.6286 72.4751 71.1381 72.4751 69.615H70.5626C70.5626 71.252 70.7086 72.8557 70.9884 74.4136L72.8708 74.0754ZM72.4751 69.615C72.4751 55.7782 83.692 44.5612 97.5288 44.5612V42.6487C82.6358 42.6487 70.5626 54.7219 70.5626 69.615H72.4751ZM97.5288 44.5612C108.574 44.5612 117.952 51.7091 121.285 61.6341L123.098 61.0252C119.511 50.3449 109.42 42.6487 97.5288 42.6487V44.5612ZM122.291 62.2807C123.078 62.1985 123.877 62.1562 124.686 62.1562V60.2437C123.81 60.2437 122.945 60.2894 122.092 60.3786L122.291 62.2807ZM124.686 62.1562C137.059 62.1562 147.063 72.018 147.063 84.15H148.975C148.975 70.9321 138.086 60.2437 124.686 60.2437V62.1562ZM147.063 84.15C147.063 95.6789 138.031 105.212 126.523 106.13L126.675 108.037C139.149 107.041 148.975 96.7042 148.975 84.15H147.063ZM125.643 107.083V107.1H127.555V107.083H125.643ZM126.599 106.144H83.3823V108.056H126.599V106.144ZM79.9307 106.144H74.6027V108.056H79.9307V106.144Z" fill="#0967D2"/>
<path fill-rule="evenodd" clip-rule="evenodd" d="M89.5828 49.2219C89.5828 73.8726 111.783 94.1851 140.369 96.9275C136.787 101.333 131.255 104.321 124.952 104.791V104.805H73.6178C67.3894 104.805 56.9844 102.181 56.9844 90.6893C56.9844 79.198 65.0736 76.5738 73.6178 76.5738C73.9811 76.5738 74.3416 76.5852 74.6986 76.6077C74.4505 75.3184 74.4069 73.9894 74.321 72.6346C73.7408 63.4827 77.7334 51.9487 89.5966 48.1948C89.5871 48.537 89.5828 48.8791 89.5828 49.2219Z" fill="#CEE1F6"/>
<path d="M105.179 52.7852C110.158 54.1029 114.09 57.997 115.461 62.9544" stroke="#9DC2ED" stroke-width="1.9125" stroke-linecap="round"/>
<path d="M82.9951 77.6476C82.9951 80.3939 85.3926 82.6201 88.3501 82.6201C91.3076 82.6201 93.7051 80.3939 93.7051 77.6476" stroke="#0967D2" stroke-width="1.9125" stroke-linecap="round"/>
<path d="M105.181 77.6476C105.181 80.3939 107.578 82.6201 110.536 82.6201C113.493 82.6201 115.891 80.3939 115.891 77.6476" stroke="#0967D2" stroke-width="1.9125" stroke-linecap="round"/>
<path d="M93.7051 91.8002H104.798" stroke="#0967D2" stroke-width="1.9125" stroke-linecap="round"/>
<path fill-rule="evenodd" clip-rule="evenodd" d="M53.2788 46.123H44.1401V47.9407H50.6028L43.6016 56.423V58.1397H53.4471V56.322H46.2775L53.2788 47.7219V46.123ZM63.5385 57.8154H56.8922V59.1374H61.5923L56.5005 65.3063V66.5548H63.6609V65.2329H58.4466L63.5385 58.9782V57.8154Z" fill="#9DC2ED"/>
</svg>
