<svg width="166" height="133" viewBox="0 0 166 133" fill="none" xmlns="http://www.w3.org/2000/svg">
<rect x="0.5" y="0.755859" width="165" height="132" fill="white"/>
<path fill-rule="evenodd" clip-rule="evenodd" d="M42.0827 89.1961H102.143C102.482 89.1961 102.814 89.1594 103.133 89.0898C103.452 89.1594 103.783 89.1961 104.123 89.1961H138.443C140.994 89.1961 143.063 87.1277 143.063 84.5761C143.063 82.0245 140.994 79.9561 138.443 79.9561H134.483C131.931 79.9561 129.863 77.8876 129.863 75.3361C129.863 72.7845 131.931 70.7161 134.483 70.7161H147.023C149.574 70.7161 151.643 68.6476 151.643 66.0961C151.643 63.5445 149.574 61.4761 147.023 61.4761H132.503C135.054 61.4761 137.123 59.4076 137.123 56.8561C137.123 54.3045 135.054 52.2361 132.503 52.2361H90.2627C92.8142 52.2361 94.8827 50.1676 94.8827 47.6161C94.8827 45.0645 92.8142 42.9961 90.2627 42.9961H52.6427C50.0911 42.9961 48.0227 45.0645 48.0227 47.6161C48.0227 50.1676 50.0911 52.2361 52.6427 52.2361H26.2427C23.6911 52.2361 21.6227 54.3045 21.6227 56.8561C21.6227 59.4076 23.6911 61.4761 26.2427 61.4761H42.7427C45.2942 61.4761 47.3627 63.5445 47.3627 66.0961C47.3627 68.6476 45.2942 70.7161 42.7427 70.7161H16.3427C13.7911 70.7161 11.7227 72.7845 11.7227 75.3361C11.7227 77.8876 13.7911 79.9561 16.3427 79.9561H42.0827C39.5311 79.9561 37.4627 82.0245 37.4627 84.5761C37.4627 87.1277 39.5311 89.1961 42.0827 89.1961ZM149.663 89.1961C152.214 89.1961 154.283 87.1277 154.283 84.5761C154.283 82.0245 152.214 79.9561 149.663 79.9561C147.111 79.9561 145.043 82.0245 145.043 84.5761C145.043 87.1277 147.111 89.1961 149.663 89.1961Z" fill="#E6F0FB"/>
<path fill-rule="evenodd" clip-rule="evenodd" d="M75.1597 74.8779C75.1081 75.2431 75.0814 75.6162 75.0814 75.9956C75.0814 80.3697 78.6273 83.9156 83.0014 83.9156C87.3755 83.9156 90.9214 80.3697 90.9214 75.9956C90.9214 75.6162 90.8947 75.2431 90.8432 74.8779H110.061V92.4956C110.061 93.5891 109.175 94.4756 108.081 94.4756H57.9214C56.8279 94.4756 55.9414 93.5891 55.9414 92.4956V74.8779H75.1597Z" fill="white"/>
<path fill-rule="evenodd" clip-rule="evenodd" d="M91.5814 74.6758C91.5814 79.4144 87.74 83.2558 83.0014 83.2558C78.2628 83.2558 74.4214 79.4144 74.4214 74.6758C74.4214 74.5223 74.4254 74.3697 74.4334 74.2182H55.9414L62.2513 55.5615C62.5233 54.7572 63.2779 54.2158 64.1269 54.2158H101.876C102.725 54.2158 103.479 54.7572 103.752 55.5615L110.061 74.2182H91.5694C91.5774 74.3697 91.5814 74.5223 91.5814 74.6758Z" fill="white"/>
<path fill-rule="evenodd" clip-rule="evenodd" d="M90.3233 75.3062C90.3233 78.9679 87.0441 82.5963 82.9989 82.5963C78.9538 82.5963 75.6745 78.9679 75.6745 75.3062C75.6745 75.1876 75.678 74.4097 75.6848 74.2926H61.8789L67.2654 61.1961C67.4976 60.5746 68.1417 60.1562 68.8665 60.1562H97.1313C97.8561 60.1562 98.5002 60.5746 98.7324 61.1961L104.119 74.2926H90.3131C90.3199 74.4097 90.3233 75.1876 90.3233 75.3062Z" fill="#E6F0FB"/>
<path fill-rule="evenodd" clip-rule="evenodd" d="M56.7656 74.3541V91.836C56.7656 92.4739 57.2827 92.991 57.9206 92.991H108.081C108.719 92.991 109.236 92.4739 109.236 91.836V74.3541L102.969 55.826C102.811 55.3568 102.37 55.041 101.875 55.041H64.1261C63.6309 55.041 63.1907 55.3568 63.032 55.826L56.7656 74.3541Z" stroke="#0967D2" stroke-width="1.65"/>
<path d="M65.1787 74.0156C67.7768 74.0156 70.5807 74.0156 73.5903 74.0156C74.8287 74.0156 74.8287 74.8859 74.8287 75.3356C74.8287 79.7097 78.4562 83.2556 82.9309 83.2556C87.4056 83.2556 91.0331 79.7097 91.0331 75.3356C91.0331 74.8859 91.0331 74.0156 92.2714 74.0156H108.739M60.2773 74.0156H61.8787H60.2773Z" stroke="#0967D2" stroke-width="1.65" stroke-linecap="round" stroke-linejoin="round"/>
<path d="M99.5654 39.2353L92.2397 47.4544M82.4054 36.3955V47.4544V36.3955ZM65.1797 39.2353L72.5054 47.4544L65.1797 39.2353Z" stroke="#9DC2ED" stroke-width="1.65" stroke-linecap="round" stroke-linejoin="round"/>
</svg>
