<svg width="27" height="28" viewBox="0 0 27 28" fill="none" xmlns="http://www.w3.org/2000/svg">
<circle cx="13.25" cy="14" r="13.25" fill="url(#paint0_linear_361_70624)"/>
<path fill-rule="evenodd" clip-rule="evenodd" d="M12.6064 9.51944L9.65128 7.77602C9.57452 7.73313 9.5072 7.67519 9.45335 7.60568C9.3995 7.53617 9.36022 7.4565 9.33787 7.37146C9.31553 7.28641 9.31056 7.19774 9.32328 7.11073C9.336 7.02372 9.36614 6.94018 9.4119 6.86509C9.45765 6.79 9.51809 6.72491 9.58958 6.67372C9.66108 6.62253 9.74216 6.58629 9.82799 6.56717C9.91382 6.54804 10.0026 6.54642 10.0891 6.56242C10.1756 6.57841 10.2579 6.61168 10.3312 6.66023L13.2602 8.40365L12.6064 9.51944Z" fill="white"/>
<path fill-rule="evenodd" clip-rule="evenodd" d="M12.8299 12.5268L6.87608 9.08355C6.80168 9.04062 6.73645 8.98346 6.68413 8.91533C6.63182 8.84719 6.59343 8.76942 6.57117 8.68645C6.52622 8.51888 6.54967 8.34032 6.63636 8.19005C6.72306 8.03977 6.8659 7.93009 7.03347 7.88514C7.20103 7.84018 7.37959 7.86363 7.52987 7.95033L12.8299 11.0187V12.5268Z" fill="white"/>
<path fill-rule="evenodd" clip-rule="evenodd" d="M19.876 8.1856C19.7874 8.04342 19.6482 7.94009 19.4864 7.89642C19.3247 7.85275 19.1524 7.87198 19.0043 7.95024L13.9048 10.8618V9.5106L16.8599 7.76718C17.0024 7.67874 17.1049 7.53825 17.1456 7.37551C17.1863 7.21277 17.1619 7.04059 17.0778 6.89547C16.9879 6.75462 16.8474 6.65356 16.6853 6.61303C16.5232 6.5725 16.3517 6.59558 16.2061 6.67755L12.9459 8.57787C12.8425 8.63856 12.7568 8.72515 12.6972 8.82911C12.6376 8.93307 12.6061 9.05079 12.6059 9.17064V21.8453C12.5953 21.9369 12.6042 22.0297 12.6319 22.1177C12.6597 22.2056 12.7058 22.2866 12.7671 22.3555C12.8285 22.4244 12.9037 22.4795 12.9878 22.5172C13.072 22.555 13.1631 22.5745 13.2553 22.5745C13.3476 22.5745 13.4387 22.555 13.5229 22.5172C13.607 22.4795 13.6822 22.4244 13.7436 22.3555C13.8049 22.2866 13.851 22.2056 13.8787 22.1177C13.9065 22.0297 13.9154 21.9369 13.9048 21.8453V12.3785L19.6319 9.08347C19.7824 8.99591 19.8924 8.85262 19.9381 8.68459C19.9838 8.51657 19.9615 8.33731 19.876 8.1856Z" fill="white"/>
<path d="M13.2576 6.96533C13.662 6.96533 13.9899 6.63749 13.9899 6.23309C13.9899 5.82869 13.662 5.50085 13.2576 5.50085C12.8532 5.50085 12.5254 5.82869 12.5254 6.23309C12.5254 6.63749 12.8532 6.96533 13.2576 6.96533Z" fill="white"/>
<path d="M11.0554 12.9713C11.1556 13.0261 11.2392 13.1067 11.2975 13.2049C11.3558 13.3031 11.3866 13.4151 11.3867 13.5292V17.0858C11.3872 17.2013 11.3568 17.3147 11.2985 17.4144C11.2402 17.5141 11.1563 17.5963 11.0554 17.6524C10.9567 17.7075 10.8459 17.7375 10.7329 17.7396C10.6172 17.7365 10.5038 17.7067 10.4016 17.6524L6.63585 15.4819C6.48558 15.3952 6.3759 15.2523 6.33094 15.0848C6.28598 14.9172 6.30943 14.7386 6.39613 14.5884C6.48283 14.4381 6.62567 14.3284 6.79323 14.2835C6.9608 14.2385 7.13936 14.2619 7.28963 14.3486L10.0791 15.9526V13.9128L8.81513 13.1893C8.67132 13.1021 8.56663 12.9629 8.52279 12.8006C8.47896 12.6382 8.49937 12.4652 8.57976 12.3176C8.66537 12.1721 8.8046 12.0659 8.96758 12.0219C9.13055 11.9779 9.30427 11.9996 9.45147 12.0822L11.0554 12.9713Z" fill="white"/>
<path d="M7.37286 12.3436C7.77727 12.3436 8.1051 12.0158 8.1051 11.6114C8.1051 11.207 7.77727 10.8792 7.37286 10.8792C6.96846 10.8792 6.64062 11.207 6.64062 11.6114C6.64062 12.0158 6.96846 12.3436 7.37286 12.3436Z" fill="white"/>
<path d="M17.0329 12.0562C17.1801 11.9736 17.3538 11.9519 17.5168 11.9959C17.6797 12.0399 17.819 12.1461 17.9046 12.2916C17.985 12.4392 18.0054 12.6122 17.9615 12.7746C17.9177 12.9369 17.813 13.0761 17.6692 13.1633L16.4052 13.8868V15.9266L19.1947 14.3226C19.2691 14.2797 19.3512 14.2519 19.4364 14.2407C19.5216 14.2295 19.6081 14.2352 19.6911 14.2575C19.7741 14.2797 19.8518 14.3181 19.92 14.3704C19.9881 14.4227 20.0453 14.488 20.0882 14.5624C20.1311 14.6368 20.159 14.7189 20.1702 14.8041C20.1814 14.8893 20.1757 14.9758 20.1534 15.0588C20.1311 15.1417 20.0928 15.2195 20.0404 15.2876C19.9881 15.3558 19.9229 15.4129 19.8485 15.4559L16.0827 17.6264C15.9805 17.6807 15.8671 17.7105 15.7514 17.7136C15.6384 17.7115 15.5276 17.6815 15.4289 17.6264C15.328 17.5703 15.2441 17.4881 15.1858 17.3884C15.1276 17.2887 15.0971 17.1753 15.0977 17.0598V13.5294C15.0978 13.4152 15.1286 13.3032 15.1868 13.2051C15.2451 13.1069 15.3287 13.0262 15.4289 12.9715L17.0329 12.0562Z" fill="white"/>
<path d="M19.1248 12.3436C19.5292 12.3436 19.8571 12.0158 19.8571 11.6114C19.8571 11.207 19.5292 10.8792 19.1248 10.8792C18.7204 10.8792 18.3926 11.207 18.3926 11.6114C18.3926 12.0158 18.7204 12.3436 19.1248 12.3436Z" fill="white"/>
<defs>
<linearGradient id="paint0_linear_361_70624" x1="0" y1="14" x2="26.5" y2="14" gradientUnits="userSpaceOnUse">
<stop stop-color="#0967D2"/>
<stop offset="1" stop-color="#09CBD2"/>
</linearGradient>
</defs>
</svg>
