<svg width="62" height="62" viewBox="0 0 62 62" fill="none" xmlns="http://www.w3.org/2000/svg">
<g filter="url(#filter0_d_1439_15761)">
<rect x="15" y="11" width="32" height="32" rx="16" fill="white" shape-rendering="crispEdges"/>
<path d="M34.6927 24.54C35.5985 24.54 36.3327 23.8058 36.3327 22.9C36.3327 21.9943 35.5985 21.26 34.6927 21.26C33.787 21.26 33.0527 21.9943 33.0527 22.9C33.0527 23.8058 33.787 24.54 34.6927 24.54Z" stroke="#717A84" stroke-width="1.5" stroke-miterlimit="10" stroke-linecap="round" stroke-linejoin="round"/>
<path d="M27.306 24.54C28.2118 24.54 28.946 23.8058 28.946 22.9C28.946 21.9943 28.2118 21.26 27.306 21.26C26.4003 21.26 25.666 21.9943 25.666 22.9C25.666 23.8058 26.4003 24.54 27.306 24.54Z" stroke="#717A84" stroke-width="1.5" stroke-miterlimit="10" stroke-linecap="round" stroke-linejoin="round"/>
<path d="M34.6927 32.74C35.5985 32.74 36.3327 32.0057 36.3327 31.1C36.3327 30.1942 35.5985 29.46 34.6927 29.46C33.787 29.46 33.0527 30.1942 33.0527 31.1C33.0527 32.0057 33.787 32.74 34.6927 32.74Z" stroke="#717A84" stroke-width="1.5" stroke-miterlimit="10" stroke-linecap="round" stroke-linejoin="round"/>
<path d="M27.306 32.74C28.2118 32.74 28.946 32.0057 28.946 31.1C28.946 30.1942 28.2118 29.46 27.306 29.46C26.4003 29.46 25.666 30.1942 25.666 31.1C25.666 32.0057 26.4003 32.74 27.306 32.74Z" stroke="#717A84" stroke-width="1.5" stroke-miterlimit="10" stroke-linecap="round" stroke-linejoin="round"/>
</g>
<defs>
<filter id="filter0_d_1439_15761" x="0" y="0" width="62" height="62" filterUnits="userSpaceOnUse" color-interpolation-filters="sRGB">
<feFlood flood-opacity="0" result="BackgroundImageFix"/>
<feColorMatrix in="SourceAlpha" type="matrix" values="0 0 0 0 0 0 0 0 0 0 0 0 0 0 0 0 0 0 127 0" result="hardAlpha"/>
<feOffset dy="4"/>
<feGaussianBlur stdDeviation="7.5"/>
<feComposite in2="hardAlpha" operator="out"/>
<feColorMatrix type="matrix" values="0 0 0 0 0.160784 0 0 0 0 0.176471 0 0 0 0 0.196078 0 0 0 0.05 0"/>
<feBlend mode="normal" in2="BackgroundImageFix" result="effect1_dropShadow_1439_15761"/>
<feBlend mode="normal" in="SourceGraphic" in2="effect1_dropShadow_1439_15761" result="shape"/>
</filter>
</defs>
</svg>
