<svg width="13" height="16" viewBox="0 0 13 16" fill="none" xmlns="http://www.w3.org/2000/svg">
<g clip-path="url(#clip0_1783_82935)">
<path d="M8.99691 10.4137L11.5634 10.4753C11.6523 10.4768 11.7298 10.4108 11.7384 10.3218L12.7369 1.24948C12.7584 1.05007 12.4787 0.979777 12.4055 1.16771L8.84054 10.1784C8.79607 10.2903 8.8764 10.4108 8.99691 10.4137Z" fill="#07A2A8"/>
<path d="M11.0639 0.0157544L2.69163 3.64814C2.60986 3.68401 2.56826 3.77582 2.59695 3.86189L3.41323 6.2964C3.45196 6.40973 3.59112 6.45133 3.68437 6.37673L11.2404 0.308411C11.3967 0.182167 11.2475 -0.0645827 11.0639 0.0157544Z" fill="#07A2A8"/>
<path d="M8.54697 10.7191L2.35527 15.6914C2.18886 15.8262 2.36675 16.083 2.55181 15.974L11.3645 10.7463L11.0805 10.7391L8.6603 10.6818C8.62013 10.6818 8.57996 10.6947 8.5484 10.7191H8.54697Z" fill="#07A2A8"/>
<path d="M8.15012 10.6848C8.23907 10.6145 8.2362 10.4782 8.14438 10.4108L5.90642 8.76101L3.66846 7.10979C3.57664 7.04237 3.44753 7.07967 3.40593 7.18583L0.476493 14.5855C0.43489 14.6902 0.46932 14.8092 0.559699 14.8767L1.64138 15.6743C1.73176 15.7417 1.85657 15.7389 1.94408 15.6686C3.03007 14.7963 7.61789 11.1137 8.14869 10.6862L8.15012 10.6848Z" fill="#07A2A8"/>
<path d="M3.25929 6.69787L2.58933 4.70235C2.53482 4.53881 2.29811 4.54885 2.25794 4.7167L0.00563341 14.0961C-0.0445773 14.3041 0.255252 14.3988 0.334155 14.1993L1.92655 10.1739L3.25498 6.8155C3.26933 6.7782 3.27076 6.73517 3.25785 6.69643L3.25929 6.69787Z" fill="#07A2A8"/>
<path d="M12.2635 0.777483L8.56947 10.1152C8.52787 10.22 8.39875 10.2587 8.30694 10.1913C7.19226 9.36782 4.94569 7.71373 3.82958 6.89028C3.28156 6.6837 10.7257 1.2093 11.661 0.345671C11.717 0.294026 11.8002 0.291157 11.8604 0.335629L12.209 0.592421C12.2664 0.635459 12.2894 0.711492 12.2621 0.777483H12.2635Z" fill="#07A2A8"/>
</g>
<defs>
<clipPath id="clip0_1783_82935">
<rect width="12.7392" height="16" fill="white"/>
</clipPath>
</defs>
</svg>
