<svg width="17" height="16" viewBox="0 0 17 16" fill="none" xmlns="http://www.w3.org/2000/svg">
<path d="M5.48633 12.2334L7.55299 13.8334C7.81966 14.1001 8.41966 14.2334 8.81966 14.2334H11.353C12.153 14.2334 13.0197 13.6334 13.2197 12.8334L14.8197 7.96673C15.153 7.03339 14.553 6.23339 13.553 6.23339H10.8863C10.4863 6.23339 10.153 5.90006 10.2197 5.43339L10.553 3.30006C10.6863 2.70006 10.2863 2.03339 9.68633 1.83339C9.15299 1.63339 8.48633 1.90006 8.21966 2.30006L5.48633 6.36673" stroke="#08121D" stroke-miterlimit="10"/>
<path d="M2.08691 12.2334V5.70002C2.08691 4.76668 2.48691 4.43335 3.42025 4.43335H4.08691C5.02025 4.43335 5.42025 4.76668 5.42025 5.70002V12.2334C5.42025 13.1667 5.02025 13.5 4.08691 13.5H3.42025C2.48691 13.5 2.08691 13.1667 2.08691 12.2334Z" stroke="#08121D" stroke-linecap="round" stroke-linejoin="round"/>
</svg>
