<svg width="20" height="20" viewBox="0 0 20 20" fill="none" xmlns="http://www.w3.org/2000/svg">
<path d="M14.167 15.3583H10.8337L7.12532 17.8249C6.57532 18.1916 5.83366 17.8 5.83366 17.1333V15.3583C3.33366 15.3583 1.66699 13.6916 1.66699 11.1916V6.19157C1.66699 3.69157 3.33366 2.0249 5.83366 2.0249H14.167C16.667 2.0249 18.3337 3.69157 18.3337 6.19157V11.1916C18.3337 13.6916 16.667 15.3583 14.167 15.3583Z" stroke="#08121D" stroke-width="1.25" stroke-miterlimit="10" stroke-linecap="round" stroke-linejoin="round"/>
<path d="M10.0005 9.46631V9.29134C10.0005 8.72467 10.3505 8.42466 10.7005 8.18299C11.0422 7.94966 11.3838 7.64967 11.3838 7.09967C11.3838 6.333 10.7672 5.71631 10.0005 5.71631C9.23383 5.71631 8.61719 6.333 8.61719 7.09967" stroke="#08121D" stroke-width="1.25" stroke-linecap="round" stroke-linejoin="round"/>
<path d="M9.99592 11.4582H10.0034" stroke="#08121D" stroke-width="1.25" stroke-linecap="round" stroke-linejoin="round"/>
</svg>
