<svg width="16" height="17" viewBox="0 0 16 17" fill="none" xmlns="http://www.w3.org/2000/svg">
<path d="M11.334 12.6281H8.66732L5.70064 14.6014C5.26064 14.8948 4.66732 14.5815 4.66732 14.0481V12.6281C2.66732 12.6281 1.33398 11.2948 1.33398 9.2948V5.29476C1.33398 3.29476 2.66732 1.96143 4.66732 1.96143H11.334C13.334 1.96143 14.6673 3.29476 14.6673 5.29476V9.2948C14.6673 11.2948 13.334 12.6281 11.334 12.6281Z" stroke="#717A84" stroke-width="1.2" stroke-miterlimit="10" stroke-linecap="round" stroke-linejoin="round"/>
<path d="M7.99923 7.91455V7.77458C7.99923 7.32124 8.27924 7.08123 8.55924 6.8879C8.83258 6.70123 9.10588 6.46124 9.10588 6.02124C9.10588 5.40791 8.61256 4.91455 7.99923 4.91455C7.38589 4.91455 6.89258 5.40791 6.89258 6.02124" stroke="#717A84" stroke-width="1.2" stroke-linecap="round" stroke-linejoin="round"/>
<path d="M7.99635 9.50789H8.00235" stroke="#717A84" stroke-width="1.5" stroke-linecap="round" stroke-linejoin="round"/>
</svg>
