<svg width="25" height="24" viewBox="0 0 25 24" fill="none" xmlns="http://www.w3.org/2000/svg">
<path d="M10 1.72892L12.1382 7.50731L12.2339 7.76606L12.4927 7.8618L18.2711 10L12.4927 12.1382L12.2339 12.2339L12.1382 12.4927L10 18.2711L7.8618 12.4927L7.76606 12.2339L7.50731 12.1382L1.72892 10L7.50731 7.8618L7.76606 7.76606L7.8618 7.50731L10 1.72892Z" stroke="white" stroke-width="1.2"/>
<path d="M21.875 0.720386L22.4846 2.36773L22.5245 2.47554L22.6323 2.51543L24.2796 3.125L22.6323 3.73457L22.5245 3.77446L22.4846 3.88227L21.875 5.52961L21.2654 3.88227L21.2255 3.77446L21.1177 3.73457L19.4704 3.125L21.1177 2.51543L21.2255 2.47554L21.2654 2.36773L21.875 0.720386Z" stroke="white" stroke-width="0.5"/>
<path d="M19.375 14.4704L19.9846 16.1177L20.0245 16.2255L20.1323 16.2654L21.7796 16.875L20.1323 17.4846L20.0245 17.5245L19.9846 17.6323L19.375 19.2796L18.7654 17.6323L18.7255 17.5245L18.6177 17.4846L16.9704 16.875L18.6177 16.2654L18.7255 16.2255L18.7654 16.1177L19.375 14.4704Z" stroke="white" stroke-width="0.5"/>
</svg>
