<svg width="14" height="14" viewBox="0 0 14 14" fill="none" xmlns="http://www.w3.org/2000/svg">
<path d="M5.34349 6.34091C5.28516 6.33508 5.21516 6.33508 5.15099 6.34091C3.76266 6.29425 2.66016 5.15675 2.66016 3.75675C2.66016 2.32758 3.81516 1.16675 5.25016 1.16675C6.67932 1.16675 7.84016 2.32758 7.84016 3.75675C7.83432 5.15675 6.73182 6.29425 5.34349 6.34091Z" stroke="#717A84" stroke-width="1.2" stroke-linecap="round" stroke-linejoin="round"/>
<path d="M9.57193 2.3335C10.7036 2.3335 11.6136 3.24933 11.6136 4.37516C11.6136 5.47766 10.7386 6.376 9.64776 6.41683C9.60109 6.411 9.54859 6.411 9.49609 6.41683" stroke="#717A84" stroke-width="1.2" stroke-linecap="round" stroke-linejoin="round"/>
<path d="M2.42594 8.4935C1.01427 9.4385 1.01427 10.9785 2.42594 11.9177C4.0301 12.991 6.66094 12.991 8.2651 11.9177C9.67677 10.9727 9.67677 9.43266 8.2651 8.4935C6.66677 7.426 4.03594 7.426 2.42594 8.4935Z" stroke="#717A84" stroke-width="1.2" stroke-linecap="round" stroke-linejoin="round"/>
<path d="M10.6992 11.6667C11.1192 11.5792 11.5159 11.4101 11.8426 11.1592C12.7526 10.4767 12.7526 9.35091 11.8426 8.66841C11.5217 8.42341 11.1309 8.26008 10.7167 8.16675" stroke="#717A84" stroke-width="1.5" stroke-linecap="round" stroke-linejoin="round"/>
</svg>
