<svg width="16" height="17" viewBox="0 0 16 17" fill="none" xmlns="http://www.w3.org/2000/svg">
<path d="M8 10.3408C9.10457 10.3408 10 9.44539 10 8.34082C10 7.23625 9.10457 6.34082 8 6.34082C6.89543 6.34082 6 7.23625 6 8.34082C6 9.44539 6.89543 10.3408 8 10.3408Z" stroke="#717A84" stroke-width="1.2" stroke-miterlimit="10" stroke-linecap="round" stroke-linejoin="round"/>
<path d="M1.33398 8.92712V7.75379C1.33398 7.06045 1.90065 6.48712 2.60065 6.48712C3.80732 6.48712 4.30065 5.63379 3.69398 4.58712C3.34732 3.98712 3.55398 3.20712 4.16065 2.86045L5.31398 2.20045C5.84065 1.88712 6.52065 2.07379 6.83398 2.60045L6.90732 2.72712C7.50732 3.77379 8.49398 3.77379 9.10065 2.72712L9.17398 2.60045C9.48732 2.07379 10.1673 1.88712 10.694 2.20045L11.8473 2.86045C12.454 3.20712 12.6607 3.98712 12.314 4.58712C11.7073 5.63379 12.2007 6.48712 13.4073 6.48712C14.1007 6.48712 14.674 7.05379 14.674 7.75379V8.92712C14.674 9.62045 14.1073 10.1938 13.4073 10.1938C12.2007 10.1938 11.7073 11.0471 12.314 12.0938C12.6607 12.7005 12.454 13.4738 11.8473 13.8205L10.694 14.4805C10.1673 14.7938 9.48732 14.6071 9.17398 14.0805L9.10065 13.9538C8.50065 12.9071 7.51398 12.9071 6.90732 13.9538L6.83398 14.0805C6.52065 14.6071 5.84065 14.7938 5.31398 14.4805L4.16065 13.8205C3.55398 13.4738 3.34732 12.6938 3.69398 12.0938C4.30065 11.0471 3.80732 10.1938 2.60065 10.1938C1.90065 10.1938 1.33398 9.62045 1.33398 8.92712Z" stroke="#717A84" stroke-width="1.2" stroke-miterlimit="10" stroke-linecap="round" stroke-linejoin="round"/>
</svg>
