<svg width="16" height="17" viewBox="0 0 16 17" fill="none" xmlns="http://www.w3.org/2000/svg">
<path d="M8 10.3412C9.10457 10.3412 10 9.44576 10 8.34119C10 7.23662 9.10457 6.34119 8 6.34119C6.89543 6.34119 6 7.23662 6 8.34119C6 9.44576 6.89543 10.3412 8 10.3412Z" stroke="#717A84" stroke-width="1.2" stroke-miterlimit="10" stroke-linecap="round" stroke-linejoin="round"/>
<path d="M1.33398 8.92785V7.75452C1.33398 7.06118 1.90065 6.48785 2.60065 6.48785C3.80732 6.48785 4.30065 5.63452 3.69398 4.58785C3.34732 3.98785 3.55398 3.20785 4.16065 2.86118L5.31398 2.20118C5.84065 1.88785 6.52065 2.07452 6.83398 2.60118L6.90732 2.72785C7.50732 3.77452 8.49398 3.77452 9.10065 2.72785L9.17398 2.60118C9.48732 2.07452 10.1673 1.88785 10.694 2.20118L11.8473 2.86118C12.454 3.20785 12.6607 3.98785 12.314 4.58785C11.7073 5.63452 12.2007 6.48785 13.4073 6.48785C14.1007 6.48785 14.674 7.05452 14.674 7.75452V8.92785C14.674 9.62118 14.1073 10.1945 13.4073 10.1945C12.2007 10.1945 11.7073 11.0479 12.314 12.0945C12.6607 12.7012 12.454 13.4745 11.8473 13.8212L10.694 14.4812C10.1673 14.7945 9.48732 14.6079 9.17398 14.0812L9.10065 13.9545C8.50065 12.9079 7.51398 12.9079 6.90732 13.9545L6.83398 14.0812C6.52065 14.6079 5.84065 14.7945 5.31398 14.4812L4.16065 13.8212C3.55398 13.4745 3.34732 12.6945 3.69398 12.0945C4.30065 11.0479 3.80732 10.1945 2.60065 10.1945C1.90065 10.1945 1.33398 9.62118 1.33398 8.92785Z" stroke="#717A84" stroke-width="1.2" stroke-miterlimit="10" stroke-linecap="round" stroke-linejoin="round"/>
</svg>
